<svg class="animated" id="freepik_stories-ransomware" xmlns="http://www.w3.org/2000/svg" viewBox="0 0 500 500" version="1.1" xmlns:xlink="http://www.w3.org/1999/xlink" xmlns:svgjs="http://svgjs.com/svgjs"><style>svg#freepik_stories-ransomware:not(.animated) .animable {opacity: 0;}svg#freepik_stories-ransomware.animated #freepik--background-complete--inject-205 {animation: 1.5s Infinite  linear shake;animation-delay: 0s;}svg#freepik_stories-ransomware.animated #freepik--speech-bubble--inject-205 {animation: 1.5s Infinite  linear shake;animation-delay: 0s;}svg#freepik_stories-ransomware.animated #freepik--Device--inject-205 {animation: 1.5s Infinite  linear floating;animation-delay: 0s;}svg#freepik_stories-ransomware.animated #freepik--Character--inject-205 {animation: 1.5s Infinite  linear floating;animation-delay: 0s;}            @keyframes shake {                10%, 90% {                    transform: translate3d(-1px, 0, 0);                  }                  20%, 80% {                    transform: translate3d(2px, 0, 0);                  }                  30%, 50%, 70% {                    transform: translate3d(-4px, 0, 0);                  }                  40%, 60% {                    transform: translate3d(4px, 0, 0);                  }            }                    @keyframes floating {                0% {                    opacity: 1;                    transform: translateY(0px);                }                50% {                    transform: translateY(-10px);                }                100% {                    opacity: 1;                    transform: translateY(0px);                }            }        </style><g id="freepik--background-complete--inject-205" class="animable animator-active" style="transform-origin: 250px 225.107px;"><path d="M443.92,341H263.17a5.87,5.87,0,0,1-5.86-5.87V71.81A5.87,5.87,0,0,1,263.17,66H443.92a5.87,5.87,0,0,1,5.86,5.86V335.08A5.87,5.87,0,0,1,443.92,341ZM263.17,66.2a5.62,5.62,0,0,0-5.61,5.61V335.08a5.62,5.62,0,0,0,5.61,5.62H443.92a5.62,5.62,0,0,0,5.61-5.62V71.81a5.61,5.61,0,0,0-5.61-5.61Z" style="fill: rgb(224, 224, 224); transform-origin: 353.545px 203.5px;" id="elta7msz5b0t" class="animable"></path><path d="M235.49,341H54.75a5.87,5.87,0,0,1-5.87-5.87V71.81A5.87,5.87,0,0,1,54.75,66H235.49a5.86,5.86,0,0,1,5.86,5.86V335.08A5.86,5.86,0,0,1,235.49,341ZM54.75,66.2a5.62,5.62,0,0,0-5.62,5.61V335.08a5.62,5.62,0,0,0,5.62,5.62H235.49a5.62,5.62,0,0,0,5.61-5.62V71.81a5.61,5.61,0,0,0-5.61-5.61Z" style="fill: rgb(224, 224, 224); transform-origin: 145.115px 203.5px;" id="elj622nkvl2b9" class="animable"></path><rect y="402.02" width="500" height="0.25" style="fill: rgb(224, 224, 224); transform-origin: 250px 402.145px;" id="elhyltldetcrv" class="animable"></rect><path d="M151.77,107.77a21.17,21.17,0,0,0-3,7.31l-4.08.38v7.91l4.08.38a21.17,21.17,0,0,0,3,7.31l-2.6,3.15,5.59,5.59,3.15-2.61a21.34,21.34,0,0,0,7.3,3l.39,4.08h7.9l.39-4.08a21.47,21.47,0,0,0,7.31-3l3.14,2.61,5.59-5.59-2.6-3.15a21.17,21.17,0,0,0,3-7.31l4.08-.38v-7.91l-4.08-.38a21.17,21.17,0,0,0-3-7.31l2.6-3.15L184.34,99l-3.14,2.61a21.08,21.08,0,0,0-7.31-3l-.39-4.08h-7.9l-.39,4.08a21,21,0,0,0-7.3,3L154.76,99l-5.59,5.59Zm25.35,4.08a10.7,10.7,0,1,1-15.14,0A10.69,10.69,0,0,1,177.12,111.85Z" style="fill: rgb(235, 235, 235); transform-origin: 169.55px 119.4px;" id="el76yoacqab74" class="animable"></path><path d="M86.53,213.3l-49.24,6.15a7.79,7.79,0,0,1-8.15-10.77L48.43,163l19.3-45.72a7.79,7.79,0,0,1,13.4-1.67l30,39.57L141,194.71a7.79,7.79,0,0,1-5.25,12.44Z" style="fill: rgb(224, 224, 224); transform-origin: 85.553px 166.011px;" id="eloxuhemneq4q" class="animable"></path><path d="M85.62,206.06l-45.91,5.73a2.65,2.65,0,0,1-2.77-3.66l18-42.63L72.7,123.4a3,3,0,0,1,5.13-.64l27.57,36.43,28,37a2.55,2.55,0,0,1-1.72,4.07Z" style="fill: rgb(245, 245, 245); transform-origin: 85.3242px 166.701px;" id="elhhpn2ekgq7" class="animable"></path><path d="M72.56,154.16l11.06-1.38,1.55,27.39-7.37.92Zm6.52,40.32A5.17,5.17,0,0,1,77,190.85a5,5,0,0,1,1.14-4,6.34,6.34,0,0,1,8.2-1,5,5,0,0,1,2.08,3.57,5.2,5.2,0,0,1-1.16,4,6.09,6.09,0,0,1-8.14,1Z" style="fill: rgb(224, 224, 224); transform-origin: 80.5119px 174.161px;" id="elvu0tt7ki2um" class="animable"></path><g id="freepik--freepik--Bitcoin--inject-488--inject-205" class="animable" style="transform-origin: 81.81px 289.26px;"><path d="M42.57,289.24c0,20.41,15.53,37,34.7,37h6.82V252.29H77.27C58.1,252.29,42.57,268.83,42.57,289.24Z" style="fill: rgb(224, 224, 224); transform-origin: 63.33px 289.265px;" id="elvc4cuv0bsd" class="animable"></path><circle cx="84.09" cy="289.24" r="36.96" style="fill: rgb(245, 245, 245); transform-origin: 84.09px 289.24px;" id="elxfd2cprv0sh" class="animable"></circle><circle cx="84.09" cy="289.24" r="29.59" style="fill: rgb(240, 240, 240); transform-origin: 84.09px 289.24px;" id="el732612ag3ay" class="animable"></circle><path d="M95.91,291a7.75,7.75,0,0,0-4.62-2,6.74,6.74,0,0,0,2.79-2.14,6.23,6.23,0,0,0,1.11-4.35,6.45,6.45,0,0,0-2.63-4.7,8.87,8.87,0,0,0-6.33-1.35l-1.63.16L84.13,272l-3.09.31.46,4.63-3.84.39-.46-4.64-3.1.31.47,4.64-6.73.67.56,5.59,2.42-.24,1.64,16.42L70,300.3l.56,5.59,6.73-.67.46,4.64,3.09-.31-.46-4.64,3.84-.39.46,4.64,3.1-.31-.47-4.63.4,0a37.18,37.18,0,0,0,3.78-.76,8.86,8.86,0,0,0,3.15-1.23,7.42,7.42,0,0,0,2.46-3,7.59,7.59,0,0,0,.6-4A6.69,6.69,0,0,0,95.91,291Zm-16.48-8.24,3.76-.38a4.26,4.26,0,0,1,2.79.41,2.38,2.38,0,0,1,1,1.81,2.52,2.52,0,0,1-.58,2.06,4.34,4.34,0,0,1-2.71,1L80,288Zm9,14.58a4.83,4.83,0,0,1-3,1.09l-4.35.43-.57-5.61,4.34-.43a5,5,0,0,1,3.21.43,2.45,2.45,0,0,1,1.09,1.87A2.63,2.63,0,0,1,88.41,297.35Z" style="fill: rgb(255, 255, 255); transform-origin: 82.7977px 290.93px;" id="elbfb8jdmye6s" class="animable"></path></g><g id="freepik--freepik-bitcoin-inject-488--inject-205" class="animable" style="transform-origin: 309.8px 122.01px;"><path d="M270,112.81c-4.53,19.55,6.69,38.84,25,43.09l6.53,1.51L318,86.61l-6.53-1.51C293.11,80.86,274.56,93.26,270,112.81Z" style="fill: rgb(224, 224, 224); transform-origin: 293.498px 120.839px;" id="el9x7r6j6fe9p" class="animable"></path><g id="elc16tuv4vxpu"><circle cx="309.8" cy="122.01" r="36.33" style="fill: rgb(245, 245, 245); transform-origin: 309.8px 122.01px; transform: rotate(-2.56deg);" class="animable"></circle></g><g id="ell3udsf4f117"><circle cx="309.8" cy="122.01" r="29.09" style="fill: rgb(240, 240, 240); transform-origin: 309.8px 122.01px; transform: rotate(-45deg);" class="animable"></circle></g><path d="M295.65,96a29.59,29.59,0,0,1,28.27,52,29.59,29.59,0,0,0-31.3-50.11A29.52,29.52,0,0,1,295.65,96Z" style="fill: rgb(224, 224, 224); isolation: isolate; transform-origin: 315.999px 120.203px;" id="el5ian47mxxdq" class="animable"></path><path d="M321.76,126.45a7.72,7.72,0,0,0-4-3,6.67,6.67,0,0,0,3.15-1.43,6.11,6.11,0,0,0,2-3.93,6.35,6.35,0,0,0-1.48-5.08,8.62,8.62,0,0,0-5.76-2.69l-1.6-.21.58-4.55-3-.39-.59,4.55-3.76-.48.58-4.55-3-.39-.58,4.55-6.59-.85-.71,5.48,2.37.31-2.07,16.09-2.37-.3-.7,5.48,6.59.85-.58,4.54,3,.39.58-4.54,3.77.48-.59,4.54,3,.39.58-4.54.39,0a36.82,36.82,0,0,0,3.79.11,8.75,8.75,0,0,0,3.29-.48,7.3,7.3,0,0,0,3-2.31,7.4,7.4,0,0,0,1.44-3.66A6.58,6.58,0,0,0,321.76,126.45Zm-14-11.54,3.69.48a4.1,4.1,0,0,1,2.58,1,2.34,2.34,0,0,1,.53,2,2.49,2.49,0,0,1-1,1.85,4.21,4.21,0,0,1-2.81.32l-3.63-.47Zm5.38,16a4.74,4.74,0,0,1-3.15.38l-4.26-.55.71-5.5,4.24.55a4.94,4.94,0,0,1,3,1.12,2.4,2.4,0,0,1,.63,2A2.56,2.56,0,0,1,313.17,130.86Z" style="fill: rgb(224, 224, 224); isolation: isolate; transform-origin: 308.604px 123.005px;" id="eljfmxlew4au8" class="animable"></path><path d="M320.74,126.32a7.69,7.69,0,0,0-4-3,6.72,6.72,0,0,0,3.15-1.43,6.1,6.1,0,0,0,2-3.93,6.31,6.31,0,0,0-1.47-5.08,8.66,8.66,0,0,0-5.76-2.69l-1.61-.21.59-4.55-3-.38-.59,4.54-3.76-.48.58-4.55-3-.39-.59,4.55-6.59-.85-.7,5.48,2.37.31-2.07,16.09-2.37-.3-.7,5.48,6.59.85-.59,4.54,3,.39.58-4.54,3.77.48-.59,4.54,3,.39.59-4.54.38,0a37,37,0,0,0,3.8.11,8.82,8.82,0,0,0,3.29-.48,7.2,7.2,0,0,0,3-2.31,7.51,7.51,0,0,0,1.45-3.66A6.64,6.64,0,0,0,320.74,126.32Zm-14-11.54,3.7.48a4.1,4.1,0,0,1,2.58,1,2.38,2.38,0,0,1,.53,1.95,2.49,2.49,0,0,1-1,1.85,4.23,4.23,0,0,1-2.81.32l-3.63-.47Zm5.38,15.95a4.7,4.7,0,0,1-3.14.38l-4.26-.55.7-5.5,4.25.55a5,5,0,0,1,3,1.12,2.42,2.42,0,0,1,.63,2A2.57,2.57,0,0,1,312.15,130.73Z" style="fill: rgb(255, 255, 255); transform-origin: 307.591px 122.875px;" id="el6h3v8pum02g" class="animable"></path></g><g id="freepik--freepik-bitcoin-inject-488--inject-205" class="animable" style="transform-origin: 243.222px 77.09px;"><path d="M214.35,81.71c2.28,14.23,15,24,28.32,21.91l4.75-.76-8.24-51.55-4.75.76C221.07,54.21,212.08,67.48,214.35,81.71Z" style="fill: rgb(224, 224, 224); transform-origin: 230.71px 77.6057px;" id="el749dwg1vlij" class="animable"></path><g id="el22cq3k2mzrk"><circle cx="243.3" cy="77.09" r="26.1" style="fill: rgb(245, 245, 245); transform-origin: 243.3px 77.09px; transform: rotate(-7.15deg);" class="animable"></circle></g><g id="el88xrg44jn3h"><circle cx="243.3" cy="77.09" r="20.9" style="fill: rgb(240, 240, 240); transform-origin: 243.3px 77.09px; transform: rotate(-24.16deg);" class="animable"></circle></g><path d="M226.86,63.61a21.26,21.26,0,0,1,32.87,27,21.26,21.26,0,0,0-34.38-24.89A23.42,23.42,0,0,1,226.86,63.61Z" style="fill: rgb(224, 224, 224); isolation: isolate; transform-origin: 244.954px 73.2296px;" id="ellc3vaiy5ryf" class="animable"></path><path d="M252.46,76.81a5.45,5.45,0,0,0-3.45-.89,4.92,4.92,0,0,0,1.7-1.81A4.38,4.38,0,0,0,251,71a4.53,4.53,0,0,0-2.35-3,6.24,6.24,0,0,0-4.57-.24L243,68l-.84-3.18-2.13.56.85,3.18-2.64.69-.84-3.18-2.12.56.84,3.18-4.62,1.22,1,3.84,1.66-.44,3,11.27-1.66.44,1,3.84,4.62-1.22.84,3.18,2.12-.56-.84-3.18,2.64-.69.84,3.18,2.12-.56L248,87l.27-.08a26.23,26.23,0,0,0,2.56-1,6.59,6.59,0,0,0,2.06-1.2,5.28,5.28,0,0,0,1.38-2.36,5.43,5.43,0,0,0,0-2.83A4.77,4.77,0,0,0,252.46,76.81ZM240,72.9l2.59-.68a3,3,0,0,1,2,0,1.73,1.73,0,0,1,.88,1.16,1.8,1.8,0,0,1-.18,1.5,3,3,0,0,1-1.78,1L241,76.5Zm7.89,9.17a3.45,3.45,0,0,1-2,1.1L243,84l-1-3.85,3-.78a3.58,3.58,0,0,1,2.29-.06,1.72,1.72,0,0,1,1,1.19A1.84,1.84,0,0,1,247.93,82.07Z" style="fill: rgb(224, 224, 224); isolation: isolate; transform-origin: 242.979px 78.38px;" id="el55lplx50l6y" class="animable"></path><path d="M251.75,77a5.51,5.51,0,0,0-3.45-.9A4.92,4.92,0,0,0,250,74.3a4.43,4.43,0,0,0,.28-3.16,4.53,4.53,0,0,0-2.35-3,6.24,6.24,0,0,0-4.57-.24l-1.12.3L241.41,65l-2.12.56.84,3.19-2.64.69-.84-3.18-2.12.56.84,3.18-4.62,1.22,1,3.84,1.66-.44,3,11.27-1.66.44,1,3.84L240.37,89l.84,3.18,2.12-.56-.84-3.18,2.64-.7.84,3.19,2.12-.56-.84-3.19.27-.07a26.23,26.23,0,0,0,2.56-1,6.4,6.4,0,0,0,2.06-1.21,5.16,5.16,0,0,0,1.38-2.35,5.43,5.43,0,0,0,0-2.83A4.74,4.74,0,0,0,251.75,77Zm-12.42-3.91,2.59-.68a3,3,0,0,1,2,0,1.71,1.71,0,0,1,.88,1.15,1.82,1.82,0,0,1-.18,1.51,3,3,0,0,1-1.78,1l-2.55.68Zm7.89,9.16a3.31,3.31,0,0,1-2,1.1l-3,.79-1-3.85,3-.78a3.58,3.58,0,0,1,2.29-.06,1.72,1.72,0,0,1,1,1.18A1.83,1.83,0,0,1,247.22,82.25Z" style="fill: rgb(255, 255, 255); transform-origin: 242.229px 78.59px;" id="elrk6fdtcqy1l" class="animable"></path></g><rect x="415.82" y="135.29" width="37.85" height="12.98" style="fill: rgb(245, 245, 245); transform-origin: 434.745px 141.78px;" id="el211qcwvy3lr" class="animable"></rect><path d="M412.65,135.9v27.44a1.38,1.38,0,0,0,1.38,1.38h40.39a1.38,1.38,0,0,0,1.38-1.38V138.6a1.38,1.38,0,0,0-1.38-1.38H429.86a1.37,1.37,0,0,1-1.2-.7l-.77-1.36a1.14,1.14,0,0,0-1-.57H414A1.33,1.33,0,0,0,412.65,135.9Z" style="fill: rgb(224, 224, 224); transform-origin: 434.225px 149.655px;" id="elbs35mhlkftt" class="animable"></path><path d="M124.85,357.07l-1.79.17v3.46l1.79.17a9.2,9.2,0,0,0,1.32,3.2L125,365.45l2.44,2.45,1.38-1.15a9.42,9.42,0,0,0,3.2,1.33l.17,1.78h3.46l.17-1.78a9.42,9.42,0,0,0,3.2-1.33l1.38,1.15,2.45-2.45-1.14-1.38a9.2,9.2,0,0,0,1.32-3.2l1.79-.17v-3.46l-1.79-.17a9.2,9.2,0,0,0-1.32-3.2l1.14-1.38L140.43,350l-1.38,1.14a9.4,9.4,0,0,0-3.2-1.32l-.17-1.78h-3.46l-.17,1.78a9.4,9.4,0,0,0-3.2,1.32L127.47,350,125,352.49l1.14,1.38A9.2,9.2,0,0,0,124.85,357.07Zm12.42-1.41a4.68,4.68,0,1,1-6.63,0A4.68,4.68,0,0,1,137.27,355.66Z" style="fill: rgb(235, 235, 235); transform-origin: 133.94px 358.95px;" id="elo868vb98iqo" class="animable"></path><path d="M122.91,86.06l-2,.19v3.91l2,.19a10.5,10.5,0,0,0,1.5,3.62l-1.29,1.56,2.77,2.77L127.45,97a10.29,10.29,0,0,0,3.62,1.49l.19,2h3.91l.19-2A10.29,10.29,0,0,0,139,97l1.56,1.29,2.77-2.77L142,94a10.48,10.48,0,0,0,1.49-3.62l2-.19V86.25l-2-.19A10.48,10.48,0,0,0,142,82.44l1.29-1.56-2.77-2.77L139,79.4a10.29,10.29,0,0,0-3.62-1.49l-.19-2h-3.91l-.19,2a10.29,10.29,0,0,0-3.62,1.49l-1.56-1.29-2.77,2.77,1.29,1.56A10.5,10.5,0,0,0,122.91,86.06ZM137,84.46a5.3,5.3,0,1,1-7.49,0A5.29,5.29,0,0,1,137,84.46Z" style="fill: rgb(235, 235, 235); transform-origin: 133.2px 88.2px;" id="elyzh6f3cij0s" class="animable"></path><path d="M374.53,86.13a15.18,15.18,0,0,0-2.17,5.28l-2.95.28v5.7l2.95.28a15.18,15.18,0,0,0,2.17,5.28l-1.88,2.27,4,4,2.27-1.88a15.18,15.18,0,0,0,5.28,2.17l.27,3h5.71l.28-3a15.26,15.26,0,0,0,5.28-2.17l2.27,1.88,4-4L400.2,103a15,15,0,0,0,2.18-5.28l2.95-.28v-5.7l-2.95-.28a15.09,15.09,0,0,0-2.18-5.28l1.89-2.27-4-4-2.27,1.88a15.26,15.26,0,0,0-5.28-2.17l-.28-3h-5.71l-.27,3A15.18,15.18,0,0,0,379,81.7l-2.27-1.88-4,4Zm18.3,3a7.72,7.72,0,1,1-10.92,0A7.71,7.71,0,0,1,392.83,89.08Z" style="fill: rgb(240, 240, 240); transform-origin: 387.37px 94.565px;" id="eliyuuprth4o" class="animable"></path><path d="M443.4,231.7a15.32,15.32,0,0,0-2.18,5.28l-2.94.27V243l2.94.28a15.48,15.48,0,0,0,2.18,5.28l-1.88,2.27,4,4,2.28-1.88a15.2,15.2,0,0,0,5.28,2.18l.27,2.95h5.71l.28-2.95a15.28,15.28,0,0,0,5.28-2.18l2.27,1.88,4-4-1.88-2.28a15.16,15.16,0,0,0,2.18-5.27l2.95-.28v-5.71l-2.95-.27a15.2,15.2,0,0,0-2.18-5.28l1.88-2.28-4-4-2.27,1.88a15.48,15.48,0,0,0-5.28-2.18l-.28-2.94h-5.71l-.27,2.94a15.4,15.4,0,0,0-5.28,2.18l-2.28-1.88-4,4Zm18.3,2.94a7.73,7.73,0,1,1-10.93,0A7.73,7.73,0,0,1,461.7,234.64Z" style="fill: rgb(245, 245, 245); transform-origin: 456.21px 240.15px;" id="el5ok19uhekbi" class="animable"></path></g><g id="freepik--Shadow--inject-205" class="animable" style="transform-origin: 255.465px 448.645px;"><path d="M464.34,448.64c0,3.39-93.52,6.14-208.88,6.14S46.59,452,46.59,448.64s93.51-6.13,208.87-6.13S464.34,445.26,464.34,448.64Z" style="fill: rgb(245, 245, 245); transform-origin: 255.465px 448.645px;" id="elhugzhcuqmxu" class="animable"></path></g><g id="freepik--speech-bubble--inject-205" class="animable" style="transform-origin: 426.945px 204.535px;"><circle cx="425.59" cy="202.46" r="19.4" style="fill: rgb(197, 63, 63); transform-origin: 425.59px 202.46px;" id="el5zvl91oc475" class="animable"></circle><polygon points="422.67 217.38 418.5 220.12 420.74 226.01 425.3 221.81 422.67 217.38" style="fill: rgb(197, 63, 63); transform-origin: 421.9px 221.695px;" id="el97c6555p7br" class="animable"></polygon><text transform="translate(421.9 212.22)" style="font-size:25.750890731811523px;fill:#fff;font-family:Montserrat-Bold, Montserrat;font-weight:700">!</text><path d="M447.14,198.8a.25.25,0,0,1-.25-.23,19.05,19.05,0,0,0-10.19-14.71.24.24,0,0,1-.12-.33.26.26,0,0,1,.34-.12,19.59,19.59,0,0,1,10.47,15.11.25.25,0,0,1-.22.27Z" style="fill: rgb(197, 63, 63); transform-origin: 441.972px 191.093px;" id="el4h78q0yj50m" class="animable"></path><path d="M447.26,204.55h-.06a.24.24,0,0,1-.18-.3,6.76,6.76,0,0,0,.07-2.76.25.25,0,0,1,.2-.29.24.24,0,0,1,.29.2,7.2,7.2,0,0,1-.08,3A.25.25,0,0,1,447.26,204.55Z" style="fill: rgb(197, 63, 63); transform-origin: 447.356px 202.872px;" id="elk51zspz8nv" class="animable"></path></g><g id="freepik--Device--inject-205" class="animable" style="transform-origin: 243.296px 270.555px;"><path d="M288,397.1v4a.9.9,0,0,1-.91.9H173.57a5.91,5.91,0,0,1-5.49-8.13l36-89.08,58.13.4-2,11.56-12.82,74.8a4,4,0,0,0,3.9,4.63h35.81A.9.9,0,0,1,288,397.1Z" style="fill: rgb(38, 50, 56); transform-origin: 227.824px 353.395px;" id="elgcl5xmvi2e" class="animable"></path><g id="ela4mnj1tf9bw"><g style="opacity: 0.6; transform-origin: 227.824px 353.405px;" class="animable"><path d="M288,397.1v4a.9.9,0,0,1-.91.9H173.57a5.91,5.91,0,0,1-5.49-8.13l22.3-55.22L204,304.81l58.13.4-2,11.56-5.57,32.53-7.25,42.27a4,4,0,0,0,3.9,4.63h35.81A.9.9,0,0,1,288,397.1Z" style="fill: rgb(255, 255, 255); transform-origin: 227.824px 353.405px;" id="el8z41wlpe8kj" class="animable"></path></g></g><g id="elp3w1lgh9a3j"><g style="isolation: isolate; opacity: 0.4; transform-origin: 217.5px 356.485px;" class="animable"><path d="M251.26,396.2H177.41a2.59,2.59,0,0,1-2.39-3.59l31.53-75.84h53.63l-12.82,74.8A4,4,0,0,0,251.26,396.2Z" style="fill: rgb(255, 255, 255); transform-origin: 217.5px 356.485px;" id="elc0soeec2j9" class="animable"></path></g></g><g id="ellnhe3a0buhc"><g style="isolation: isolate; opacity: 0.2; transform-origin: 226.275px 327.055px;" class="animable"><polygon points="262.17 305.21 260.18 316.77 254.61 349.3 190.38 338.67 204.04 304.81 262.17 305.21" id="elnz2lggw38h9" class="animable" style="transform-origin: 226.275px 327.055px;"></polygon></g></g><path d="M375.19,139.15H106.1A6.89,6.89,0,0,0,99.22,146V328.21a6.88,6.88,0,0,0,6.88,6.88H375.19a6.88,6.88,0,0,0,6.89-6.88V146A6.89,6.89,0,0,0,375.19,139.15Z" style="fill: rgb(38, 50, 56); transform-origin: 240.65px 237.12px;" id="el1qg2xh9wma" class="animable"></path><g id="elcf6s2ef7q6l"><g style="opacity: 0.8; transform-origin: 240.65px 237.12px;" class="animable"><path d="M375.19,139.15H106.1A6.89,6.89,0,0,0,99.22,146V328.21a6.88,6.88,0,0,0,6.88,6.88H375.19a6.88,6.88,0,0,0,6.89-6.88V146A6.89,6.89,0,0,0,375.19,139.15Z" style="fill: rgb(255, 255, 255); transform-origin: 240.65px 237.12px;" id="el8k7um2hswhu" class="animable"></path></g></g><g id="elbno3a94qi2"><g style="isolation: isolate; opacity: 0.2; transform-origin: 105.51px 237.1px;" class="animable"><path d="M111.8,335.09h-5.7a6.88,6.88,0,0,1-6.88-6.88V146a6.88,6.88,0,0,1,6.88-6.89h5.7a6.88,6.88,0,0,0-6.88,6.89V328.21A6.88,6.88,0,0,0,111.8,335.09Z" id="elb2vuab6dsl" class="animable" style="transform-origin: 105.51px 237.1px;"></path></g></g><rect x="111.13" y="145.07" width="264.74" height="175.66" style="fill: rgb(197, 63, 63); transform-origin: 243.5px 232.9px;" id="elbjhckzdxf0j" class="animable"></rect><g id="elj626zx47yqm"><g style="opacity: 0.4; transform-origin: 243.5px 232.9px;" class="animable"><rect x="111.13" y="145.07" width="264.74" height="175.66" style="fill: rgb(255, 255, 255); transform-origin: 243.5px 232.9px;" id="els84iwxalu1" class="animable"></rect></g></g><rect x="110.92" y="145.07" width="265.06" height="175.87" style="fill: rgb(197, 63, 63); transform-origin: 243.45px 233.005px;" id="elnojqz56g16d" class="animable"></rect><g id="el2d2mn31yt64"><g style="opacity: 0.5; transform-origin: 243.45px 233.005px;" class="animable"><rect x="110.92" y="145.07" width="265.06" height="175.87" style="fill: rgb(255, 255, 255); transform-origin: 243.45px 233.005px;" id="eli5b77i5i9wh" class="animable"></rect></g></g><rect x="110.92" y="145.07" width="265.06" height="17.06" style="fill: rgb(197, 63, 63); transform-origin: 243.45px 153.6px;" id="elsc6foyg3ay" class="animable"></rect><g id="ellokwd0ax3n"><g style="opacity: 0.3; transform-origin: 368px 153.6px;" class="animable"><path d="M371,153.6a3,3,0,1,1-3-3A3,3,0,0,1,371,153.6Z" style="fill: rgb(255, 255, 255); transform-origin: 368px 153.6px;" id="elwse6ym8kbt" class="animable"></path></g></g><g id="ell9b7geennto"><g style="opacity: 0.3; transform-origin: 359.43px 153.6px;" class="animable"><path d="M362.43,153.6a3,3,0,1,1-3-3A3,3,0,0,1,362.43,153.6Z" style="fill: rgb(255, 255, 255); transform-origin: 359.43px 153.6px;" id="eln3pwio460jc" class="animable"></path></g></g><g id="elmiosbkn2cic"><g style="opacity: 0.3; transform-origin: 350.9px 153.6px;" class="animable"><path d="M353.9,153.6a3,3,0,1,1-3-3A3,3,0,0,1,353.9,153.6Z" style="fill: rgb(255, 255, 255); transform-origin: 350.9px 153.6px;" id="elx8q9vid1ff8" class="animable"></path></g></g><g id="elyoxgcaijvxr"><g style="opacity: 0.1; transform-origin: 374.1px 241.52px;" class="animable"><rect x="372.22" y="162.13" width="3.76" height="158.78" id="ela31zk75exaj" class="animable" style="transform-origin: 374.1px 241.52px;"></rect></g></g><rect x="372.22" y="162.13" width="3.76" height="36" style="fill: rgb(255, 255, 255); transform-origin: 374.1px 180.13px;" id="elybw6lfk93w" class="animable"></rect><rect x="324.89" y="180.35" width="28.44" height="9.75" style="fill: rgb(255, 255, 255); transform-origin: 339.11px 185.225px;" id="elrmkha73f7m" class="animable"></rect><path d="M322.51,180.81v20.62a1,1,0,0,0,1,1h30.34a1,1,0,0,0,1-1V182.84a1,1,0,0,0-1-1H335.44a1.05,1.05,0,0,1-.91-.52l-.58-1a.85.85,0,0,0-.74-.42h-9.69A1,1,0,0,0,322.51,180.81Z" style="fill: rgb(197, 63, 63); transform-origin: 338.68px 191.165px;" id="elkbtn1w7gy9h" class="animable"></path><rect x="324.89" y="220.16" width="28.44" height="9.75" style="fill: rgb(255, 255, 255); transform-origin: 339.11px 225.035px;" id="el04bjkxg8a6lc" class="animable"></rect><path d="M322.51,220.61v20.62a1,1,0,0,0,1,1h30.34a1,1,0,0,0,1-1V222.64a1,1,0,0,0-1-1H335.44a1,1,0,0,1-.91-.53l-.58-1a.86.86,0,0,0-.74-.43h-9.69A1,1,0,0,0,322.51,220.61Z" style="fill: rgb(197, 63, 63); transform-origin: 338.68px 230.955px;" id="elzi44c9iuqf7" class="animable"></path><rect x="324.89" y="256.29" width="28.44" height="9.75" style="fill: rgb(255, 255, 255); transform-origin: 339.11px 261.165px;" id="elwc0e35cvmqn" class="animable"></rect><path d="M322.51,256.75v20.62a1,1,0,0,0,1,1h30.34a1,1,0,0,0,1-1V258.78a1,1,0,0,0-1-1H335.44a1.05,1.05,0,0,1-.91-.52l-.58-1a.84.84,0,0,0-.74-.43h-9.69A1,1,0,0,0,322.51,256.75Z" style="fill: rgb(197, 63, 63); transform-origin: 338.68px 267.1px;" id="el8910svugw4n" class="animable"></path><rect x="124.08" y="180.35" width="28.44" height="9.75" style="fill: rgb(255, 255, 255); transform-origin: 138.3px 185.225px;" id="elz2l86y2mzxg" class="animable"></rect><path d="M121.7,180.81v20.62a1,1,0,0,0,1,1h30.35a1,1,0,0,0,1-1V182.84a1,1,0,0,0-1-1H134.63a1,1,0,0,1-.9-.52l-.58-1a.85.85,0,0,0-.74-.42h-9.7A1,1,0,0,0,121.7,180.81Z" style="fill: rgb(197, 63, 63); transform-origin: 137.875px 191.165px;" id="els6oytct6fm" class="animable"></path><rect x="124.08" y="222.61" width="28.44" height="9.75" style="fill: rgb(255, 255, 255); transform-origin: 138.3px 227.485px;" id="el1guowhokva3" class="animable"></rect><path d="M121.7,223.07v20.61a1,1,0,0,0,1,1h30.35a1,1,0,0,0,1-1V225.1a1,1,0,0,0-1-1H134.63a1,1,0,0,1-.9-.53l-.58-1a.85.85,0,0,0-.74-.42h-9.7A1,1,0,0,0,121.7,223.07Z" style="fill: rgb(197, 63, 63); transform-origin: 137.875px 233.415px;" id="el3vdb39f4f5b" class="animable"></path><rect x="124.08" y="261.25" width="28.44" height="9.75" style="fill: rgb(255, 255, 255); transform-origin: 138.3px 266.125px;" id="elmjcjb57o0z" class="animable"></rect><path d="M121.7,261.71v20.61a1,1,0,0,0,1,1h30.35a1,1,0,0,0,1-1V263.74a1,1,0,0,0-1-1H134.63a1,1,0,0,1-.9-.53l-.58-1a.85.85,0,0,0-.74-.42h-9.7A1,1,0,0,0,121.7,261.71Z" style="fill: rgb(197, 63, 63); transform-origin: 137.875px 272.055px;" id="ell7oojav4ftm" class="animable"></path><rect x="184.21" y="179.4" width="116.16" height="40.85" style="fill: rgb(255, 255, 255); transform-origin: 242.29px 199.825px;" id="elgn5p224mhjl" class="animable"></rect><path d="M174.49,181.31V267.7a4.29,4.29,0,0,0,4.24,4.34h124a4.29,4.29,0,0,0,4.24-4.34V189.81a4.29,4.29,0,0,0-4.24-4.34H227.3a4.2,4.2,0,0,1-3.68-2.21L221.25,179a3.49,3.49,0,0,0-3-1.79h-39.6A4.12,4.12,0,0,0,174.49,181.31Z" style="fill: rgb(197, 63, 63); transform-origin: 240.73px 224.625px;" id="eld10hpu01pnc" class="animable"></path><path d="M170.06,214.58a.5.5,0,0,1-.5-.5V187.89a.5.5,0,0,1,.5-.5.5.5,0,0,1,.5.5v26.19A.5.5,0,0,1,170.06,214.58Z" style="fill: rgb(197, 63, 63); transform-origin: 170.06px 200.985px;" id="elaxaj618w9qb" class="animable"></path><path d="M170.06,184.94a.5.5,0,0,1-.5-.5v-3.25a.5.5,0,0,1,.5-.5.5.5,0,0,1,.5.5v3.25A.5.5,0,0,1,170.06,184.94Z" style="fill: rgb(197, 63, 63); transform-origin: 170.06px 182.815px;" id="elvx28lv84xkc" class="animable"></path><path d="M262.18,249H224.81V237.21a18.69,18.69,0,1,1,37.37,0ZM229,244.75h29v-7.54a14.53,14.53,0,1,0-29,0Z" style="fill: rgb(224, 224, 224); transform-origin: 243.495px 233.544px;" id="eltjtfkg9og" class="animable"></path><rect x="218.81" y="244.08" width="49.36" height="39.83" rx="5.07" style="fill: rgb(197, 63, 63); transform-origin: 243.49px 263.995px;" id="elld4cbrgwx1" class="animable"></rect><g id="el8g3wmajc02a"><g style="opacity: 0.3; transform-origin: 243.49px 261.68px;" class="animable"><rect x="218.81" y="244.08" width="49.36" height="35.2" rx="5.07" id="el6xw5e9yrwwg" class="animable" style="transform-origin: 243.49px 261.68px;"></rect></g></g><path d="M249.14,258.58a5.86,5.86,0,1,1-5.86-5.94A5.9,5.9,0,0,1,249.14,258.58Z" style="fill: rgb(38, 50, 56); transform-origin: 243.28px 258.5px;" id="eltl1a60njj6" class="animable"></path><polygon points="242.1 260.37 239.74 270.72 247.78 270.72 244.61 260.31 242.1 260.37" style="fill: rgb(38, 50, 56); transform-origin: 243.76px 265.515px;" id="elir46x0a6pa" class="animable"></polygon><path d="M287.69,240.11a12,12,0,0,1-11.57-9.29,12.11,12.11,0,0,1,1.45-9.11,11.83,11.83,0,0,1,7.38-5.4l12.86-3.09a11.71,11.71,0,0,1,9,1.48,12.13,12.13,0,0,1-3.51,22l-12.86,3.08A11.73,11.73,0,0,1,287.69,240.11Zm12.86-22.29a6.89,6.89,0,0,0-1.62.19l-12.86,3.09a7.15,7.15,0,0,0-5.23,8.59,7,7,0,0,0,8.47,5.3l12.86-3.08a7.15,7.15,0,0,0,5.23-8.59A7.08,7.08,0,0,0,300.55,217.82Z" style="fill: rgb(224, 224, 224); transform-origin: 294.118px 226.501px;" id="elw233i21jft" class="animable"></path><path d="M255.45,234.66a2.42,2.42,0,0,1-2.4-2.12,2.45,2.45,0,0,1,2.07-2.78l28.59-4a2.44,2.44,0,0,1,2.73,2.11,2.46,2.46,0,0,1-2.08,2.77l-28.58,4A1.83,1.83,0,0,1,255.45,234.66Z" style="fill: rgb(224, 224, 224); transform-origin: 269.744px 230.201px;" id="el1zwj6o9bmz4" class="animable"></path><g id="eljob7fscxca"><g style="opacity: 0.3; transform-origin: 258.005px 229px;" class="animable"><polygon points="255.95 229.65 260.34 229.04 260 228.35 255.67 229.2 255.95 229.65" id="el1u5oetaykd9" class="animable" style="transform-origin: 258.005px 229px;"></polygon></g></g><g id="ely5v27s2jyvk"><g style="opacity: 0.3; transform-origin: 259.87px 234.44px;" class="animable"><polygon points="257.74 234.37 261.88 233.79 262 234.61 257.87 235.09 257.74 234.37" id="el4nwaldt9ea8" class="animable" style="transform-origin: 259.87px 234.44px;"></polygon></g></g><g id="elpd05ufurym"><g style="opacity: 0.3; transform-origin: 279.025px 231.9px;" class="animable"><polygon points="276.36 231.81 281.32 231.11 281.69 231.81 276.7 232.69 276.36 231.81" id="elsx1slnk3jf8" class="animable" style="transform-origin: 279.025px 231.9px;"></polygon></g></g><g id="elydbic3e56y"><g style="opacity: 0.3; transform-origin: 278.465px 226.175px;" class="animable"><polygon points="275.83 226.81 280.92 226.18 281.1 225.54 275.93 226.07 275.83 226.81" id="el69tswyoxsn3" class="animable" style="transform-origin: 278.465px 226.175px;"></polygon></g></g><path d="M338.13,227.47a11.93,11.93,0,0,1-12-8.67,12.13,12.13,0,0,1,1-9.18,11.9,11.9,0,0,1,7.1-5.78l12.68-3.75a11.68,11.68,0,0,1,9.05,1,12,12,0,0,1,5.7,7.2,12.11,12.11,0,0,1-8.09,14.95L340.85,227A11.85,11.85,0,0,1,338.13,227.47Zm11.71-22.93a6.88,6.88,0,0,0-1.61.28l-12.68,3.75a7.16,7.16,0,0,0-4.79,8.85,7,7,0,0,0,8.73,4.86l12.68-3.75a7.16,7.16,0,0,0,4.79-8.85A7.07,7.07,0,0,0,349.84,204.54Z" style="fill: rgb(224, 224, 224); transform-origin: 343.895px 213.541px;" id="el4ixz69is289" class="animable"></path><path d="M305.65,223.71a2.43,2.43,0,0,1-2.51-2,2.46,2.46,0,0,1,1.94-2.87l28.34-5.45a2.44,2.44,0,0,1,2.84,2,2.47,2.47,0,0,1-1.93,2.88L306,223.67A1.86,1.86,0,0,1,305.65,223.71Z" style="fill: rgb(224, 224, 224); transform-origin: 319.7px 218.532px;" id="eli9tyokkrpa" class="animable"></path><g id="el36tkdpkgxu9"><g style="opacity: 0.3; transform-origin: 307.345px 218.055px;" class="animable"><polygon points="304.88 218.94 310.13 217.88 309.69 217.17 304.56 218.58 304.88 218.94" id="el1eglhfln95rj" class="animable" style="transform-origin: 307.345px 218.055px;"></polygon></g></g><g id="elr3k8ky47rw"><g style="opacity: 0.3; transform-origin: 309.665px 223.365px;" class="animable"><polygon points="307.24 223.43 312.04 222.51 312.09 223.3 307.24 224.22 307.24 223.43" id="elvignpighws" class="animable" style="transform-origin: 309.665px 223.365px;"></polygon></g></g><g id="el47qqury8d2l"><g style="opacity: 0.3; transform-origin: 329.05px 219.72px;" class="animable"><polygon points="326.39 219.77 331.31 218.81 331.71 219.49 326.78 220.63 326.39 219.77" id="eldp69epk6cv9" class="animable" style="transform-origin: 329.05px 219.72px;"></polygon></g></g><g id="elxqmgyrtv4v"><g style="opacity: 0.3; transform-origin: 328.21px 214.04px;" class="animable"><polygon points="325.61 214.81 330.66 213.91 330.81 213.27 325.67 214.07 325.61 214.81" id="elrk1z6b8us4" class="animable" style="transform-origin: 328.21px 214.04px;"></polygon></g></g><path d="M356.72,212.05a2.44,2.44,0,0,1-2.51-2,2.47,2.47,0,0,1,1.93-2.88l28.35-5.44a2.43,2.43,0,0,1,2.84,2,2.46,2.46,0,0,1-1.94,2.87L357.05,212Z" style="fill: rgb(224, 224, 224); transform-origin: 370.77px 206.871px;" id="el2f2nxcjoe7p" class="animable"></path><g id="elqhuw61rb2g9"><g style="opacity: 0.3; transform-origin: 358.41px 206.39px;" class="animable"><polygon points="355.95 207.28 361.19 206.22 360.76 205.5 355.63 206.91 355.95 207.28" id="elvcjt4h5dp8k" class="animable" style="transform-origin: 358.41px 206.39px;"></polygon></g></g><g id="elh6b67yhkphf"><g style="opacity: 0.3; transform-origin: 360.735px 211.705px;" class="animable"><polygon points="358.31 211.76 363.1 210.85 363.16 211.64 358.31 212.56 358.31 211.76" id="elbkwezkajkw7" class="animable" style="transform-origin: 360.735px 211.705px;"></polygon></g></g><path d="M196.26,239.47l-12.85-3.08a12.13,12.13,0,0,1-3.51-22,11.68,11.68,0,0,1,9-1.47L201.74,216a11.83,11.83,0,0,1,7.38,5.4,12.14,12.14,0,0,1,1.46,9.12A12,12,0,0,1,199,239.79,11.77,11.77,0,0,1,196.26,239.47Zm-17-16.47a7.15,7.15,0,0,0,5.24,8.59l12.85,3.09a7,7,0,0,0,8.47-5.31,7.15,7.15,0,0,0-5.23-8.59l-12.85-3.08a7,7,0,0,0-8.48,5.3Z" style="fill: rgb(224, 224, 224); transform-origin: 192.585px 226.189px;" id="el3srydbzf0m6" class="animable"></path><path d="M231.25,234.35a2.46,2.46,0,0,0,.32-4.9l-28.58-4a2.46,2.46,0,0,0-.66,4.87l28.58,4Z" style="fill: rgb(224, 224, 224); transform-origin: 217.016px 229.895px;" id="elrc19i13brbh" class="animable"></path><g id="elruztj40nud"><g style="opacity: 0.3; transform-origin: 229.04px 228.73px;" class="animable"><polygon points="231.15 229.39 226.6 228.76 227.01 228.07 231.48 228.95 231.15 229.39" id="el32ox0k8z1fc" class="animable" style="transform-origin: 229.04px 228.73px;"></polygon></g></g><g id="elyj0gkrsv6th"><g style="opacity: 0.3; transform-origin: 227.225px 234.215px;" class="animable"><polygon points="229.35 234.11 225.21 233.56 225.1 234.38 229.23 234.87 229.35 234.11" id="elb33awehf0c" class="animable" style="transform-origin: 227.225px 234.215px;"></polygon></g></g><g id="eljh06x1h1re"><g style="opacity: 0.3; transform-origin: 207.67px 231.585px;" class="animable"><polygon points="210.33 231.49 205.37 230.79 205.01 231.49 209.99 232.38 210.33 231.49" id="el3e635euffz2" class="animable" style="transform-origin: 207.67px 231.585px;"></polygon></g></g><g id="elldltyoyg11"><g style="opacity: 0.3; transform-origin: 208.225px 225.865px;" class="animable"><polygon points="210.86 226.5 205.78 225.86 205.59 225.23 210.76 225.76 210.86 226.5" id="eld4wr8legfue" class="animable" style="transform-origin: 208.225px 225.865px;"></polygon></g></g><path d="M145.5,227.9l-12.68-3.74a12.12,12.12,0,0,1-8.09-15,12,12,0,0,1,5.7-7.2,11.63,11.63,0,0,1,9-1l12.68,3.74a11.9,11.9,0,0,1,7.1,5.78,12.13,12.13,0,0,1,1,9.18,11.81,11.81,0,0,1-14.75,8.2Zm-16.11-17.32a7.16,7.16,0,0,0,4.79,8.85l12.68,3.75a7,7,0,0,0,8.73-4.86,7.16,7.16,0,0,0-4.79-8.85l-12.68-3.75a6.46,6.46,0,0,0-1.61-.27A7.05,7.05,0,0,0,129.39,210.58Z" style="fill: rgb(224, 224, 224); transform-origin: 142.465px 214.413px;" id="el0sr6kz6ovt6o" class="animable"></path><path d="M180.7,224.62a2.46,2.46,0,0,0,.57-4.88l-28.34-5.45a2.46,2.46,0,0,0-.91,4.84l28.35,5.45Z" style="fill: rgb(224, 224, 224); transform-origin: 166.665px 219.436px;" id="elgqwu4q0h2dr" class="animable"></path><g id="eldt03w9pekbr"><g style="opacity: 0.3; transform-origin: 178.615px 218.81px;" class="animable"><polygon points="181.07 219.7 175.83 218.64 176.26 217.92 181.4 219.33 181.07 219.7" id="elt96bt73lfw9" class="animable" style="transform-origin: 178.615px 218.81px;"></polygon></g></g><g id="elk8hli1c8s9d"><g style="opacity: 0.3; transform-origin: 176.68px 224.27px;" class="animable"><polygon points="179.1 224.33 174.31 223.41 174.26 224.2 179.1 225.13 179.1 224.33" id="el9n8ddpy7my7" class="animable" style="transform-origin: 176.68px 224.27px;"></polygon></g></g><g id="elx4q5v99ztw"><g style="opacity: 0.3; transform-origin: 157.3px 220.63px;" class="animable"><polygon points="159.96 220.67 155.04 219.72 154.64 220.4 159.57 221.54 159.96 220.67" id="elvbz5omuykag" class="animable" style="transform-origin: 157.3px 220.63px;"></polygon></g></g><g id="el71thtjnaq82"><g style="opacity: 0.3; transform-origin: 158.14px 214.94px;" class="animable"><polygon points="160.74 215.71 155.69 214.81 155.54 214.17 160.68 214.97 160.74 215.71" id="el3atdo8r6qhj" class="animable" style="transform-origin: 158.14px 214.94px;"></polygon></g></g><path d="M130.89,211.18a2.42,2.42,0,0,0,2.71-1.7,2.47,2.47,0,0,0-1.6-3.08l-27.56-8.66a2.43,2.43,0,0,0-3,1.63,2.46,2.46,0,0,0,1.6,3.07l27.56,8.66A1.67,1.67,0,0,0,130.89,211.18Z" style="fill: rgb(224, 224, 224); transform-origin: 117.52px 204.428px;" id="elfeqnjbi2b38" class="animable"></path><g id="elqcfdakx3pr9"><g style="opacity: 0.3; transform-origin: 129.82px 205.375px;" class="animable"><polygon points="132.19 206.53 127.09 204.88 127.6 204.22 132.55 206.2 132.19 206.53" id="el89xiofouhmf" class="animable" style="transform-origin: 129.82px 205.375px;"></polygon></g></g><g id="elfg11jq71sb8"><g style="opacity: 0.3; transform-origin: 126.935px 210.385px;" class="animable"><polygon points="129.34 210.72 124.68 209.26 124.53 210.03 129.25 211.51 129.34 210.72" id="el7rrrfaeiias" class="animable" style="transform-origin: 126.935px 210.385px;"></polygon></g></g><path d="M281.86,310.34H201.54a8.9,8.9,0,0,1-8.9-8.9h0a8.91,8.91,0,0,1,8.9-8.9h80.32a8.9,8.9,0,0,1,8.9,8.9h0A8.89,8.89,0,0,1,281.86,310.34Z" style="fill: rgb(197, 63, 63); transform-origin: 241.7px 301.44px;" id="elo5ka1xw3hpd" class="animable"></path><g id="elietvi1ap1an"><g style="opacity: 0.3; transform-origin: 241.7px 301.44px;" class="animable"><path d="M281.86,310.34H201.54a8.9,8.9,0,0,1-8.9-8.9h0a8.91,8.91,0,0,1,8.9-8.9h80.32a8.9,8.9,0,0,1,8.9,8.9h0A8.89,8.89,0,0,1,281.86,310.34Z" id="eldzna1w97vy" class="animable" style="transform-origin: 241.7px 301.44px;"></path></g></g><path d="M284.12,310.34H203.93a8.89,8.89,0,0,1-8.9-8.9h0a8.9,8.9,0,0,1,8.9-8.9h80.19a8.9,8.9,0,0,1,8.9,8.9h0A8.89,8.89,0,0,1,284.12,310.34Z" style="fill: rgb(197, 63, 63); transform-origin: 244.025px 301.44px;" id="el7wyypy37g77" class="animable"></path><path d="M214.59,299.41a2.2,2.2,0,0,1,.89.9,2.91,2.91,0,0,1,0,2.69,2.2,2.2,0,0,1-.89.9,2.47,2.47,0,0,1-1.27.32,1.94,1.94,0,0,1-1.5-.6V306h-1.45v-6.79h1.39v.58a1.88,1.88,0,0,1,1.56-.65A2.47,2.47,0,0,1,214.59,299.41Zm-.6,3.25a1.42,1.42,0,0,0,.35-1,1.44,1.44,0,0,0-.35-1,1.23,1.23,0,0,0-.92-.38,1.21,1.21,0,0,0-.91.38,1.4,1.4,0,0,0-.36,1,1.38,1.38,0,0,0,.36,1,1.21,1.21,0,0,0,.91.38A1.23,1.23,0,0,0,214,302.66Z" style="fill: rgb(255, 255, 255); transform-origin: 213.09px 302.568px;" id="el0gi4sjrmfibn" class="animable"></path><path d="M220.48,299.64a2.09,2.09,0,0,1,.62,1.66v2.85h-1.35v-.62a1.62,1.62,0,0,1-1.52.69,2.35,2.35,0,0,1-1-.19,1.43,1.43,0,0,1-.64-.54,1.4,1.4,0,0,1-.23-.78,1.29,1.29,0,0,1,.53-1.09,2.65,2.65,0,0,1,1.62-.4h1.15a.94.94,0,0,0-.29-.73,1.26,1.26,0,0,0-.86-.25,2.66,2.66,0,0,0-.79.12,2.35,2.35,0,0,0-.65.34l-.52-1a3,3,0,0,1,1-.44,4.18,4.18,0,0,1,1.17-.16A2.58,2.58,0,0,1,220.48,299.64Zm-1.23,3.44a1,1,0,0,0,.41-.51v-.51h-1c-.59,0-.89.2-.89.59a.54.54,0,0,0,.22.44,1,1,0,0,0,.6.16A1.3,1.3,0,0,0,219.25,303.08Z" style="fill: rgb(255, 255, 255); transform-origin: 218.733px 301.662px;" id="eljdgo8otu3j" class="animable"></path><path d="M227.27,299.16l-2.25,5.3a2.65,2.65,0,0,1-.85,1.21A2.06,2.06,0,0,1,223,306a2.53,2.53,0,0,1-.77-.12,1.66,1.66,0,0,1-.62-.33l.53-1a1.31,1.31,0,0,0,.81.32.73.73,0,0,0,.48-.15,1.1,1.1,0,0,0,.34-.48l0,0-2.16-5h1.49l1.4,3.39,1.41-3.39Z" style="fill: rgb(255, 255, 255); transform-origin: 224.44px 302.58px;" id="eladqendrk5cf" class="animable"></path><path d="M232.07,299.27h1.28v1.12h-1.24v3.76h-1.45v-3.76h-.77v-1.12h.77v-.22a1.79,1.79,0,0,1,.51-1.35,1.89,1.89,0,0,1,1.42-.5,2.51,2.51,0,0,1,.62.07,1.5,1.5,0,0,1,.48.19l-.38,1.05a1,1,0,0,0-.58-.17q-.66,0-.66.72Z" style="fill: rgb(255, 255, 255); transform-origin: 231.79px 300.673px;" id="el8towktdlxf8" class="animable"></path><path d="M235,303.9a2.48,2.48,0,0,1-1-.92,2.68,2.68,0,0,1,0-2.65,2.46,2.46,0,0,1,1-.91,3,3,0,0,1,1.41-.33,2.94,2.94,0,0,1,1.41.33,2.46,2.46,0,0,1,1,.91,2.68,2.68,0,0,1,0,2.65,2.48,2.48,0,0,1-1,.92,2.93,2.93,0,0,1-1.41.32A3,3,0,0,1,235,303.9Zm2.33-1.24a1.42,1.42,0,0,0,.35-1,1.44,1.44,0,0,0-.35-1,1.23,1.23,0,0,0-.92-.38,1.21,1.21,0,0,0-.91.38,1.37,1.37,0,0,0-.37,1,1.34,1.34,0,0,0,.37,1,1.21,1.21,0,0,0,.91.38A1.23,1.23,0,0,0,237.3,302.66Z" style="fill: rgb(255, 255, 255); transform-origin: 236.41px 301.655px;" id="elldy01k34rl" class="animable"></path><path d="M242.16,299.27a2.73,2.73,0,0,1,1-.18v1.33l-.32,0a1.35,1.35,0,0,0-1,.35,1.42,1.42,0,0,0-.35,1v2.36h-1.45v-5h1.38v.66A1.74,1.74,0,0,1,242.16,299.27Z" style="fill: rgb(255, 255, 255); transform-origin: 241.6px 301.61px;" id="eltwd0dcymgjj" class="animable"></path><path d="M251.73,299.16v5h-1.37v-.59a1.89,1.89,0,0,1-.69.49,2,2,0,0,1-.86.17,2.1,2.1,0,0,1-1.56-.56,2.28,2.28,0,0,1-.57-1.68v-2.82h1.44v2.61c0,.8.34,1.2,1,1.2a1.08,1.08,0,0,0,.84-.34,1.41,1.41,0,0,0,.31-1v-2.47Z" style="fill: rgb(255, 255, 255); transform-origin: 249.202px 301.697px;" id="elnoogyqorqm" class="animable"></path><path d="M257.6,299.64a2.22,2.22,0,0,1,.57,1.65v2.86h-1.44v-2.63a1.33,1.33,0,0,0-.26-.89,1,1,0,0,0-.75-.29,1.15,1.15,0,0,0-.88.34,1.41,1.41,0,0,0-.32,1v2.47h-1.45v-5h1.39v.59a1.81,1.81,0,0,1,.71-.49,2.38,2.38,0,0,1,.94-.17A2,2,0,0,1,257.6,299.64Z" style="fill: rgb(255, 255, 255); transform-origin: 255.623px 301.614px;" id="elxy9cble46wo" class="animable"></path><path d="M259.48,297.27h1.45v6.88h-1.45Z" style="fill: rgb(255, 255, 255); transform-origin: 260.205px 300.71px;" id="elbgztoyo6n9q" class="animable"></path><path d="M263.23,303.9a2.48,2.48,0,0,1-1-.92,2.68,2.68,0,0,1,0-2.65,2.46,2.46,0,0,1,1-.91,3,3,0,0,1,1.42-.33,2.92,2.92,0,0,1,1.4.33,2.46,2.46,0,0,1,1,.91,2.68,2.68,0,0,1,0,2.65,2.48,2.48,0,0,1-1,.92,2.92,2.92,0,0,1-1.4.32A3,3,0,0,1,263.23,303.9Zm2.33-1.24a1.38,1.38,0,0,0,.36-1,1.4,1.4,0,0,0-.36-1,1.21,1.21,0,0,0-.91-.38,1.23,1.23,0,0,0-.92.38,1.4,1.4,0,0,0-.36,1,1.38,1.38,0,0,0,.36,1,1.23,1.23,0,0,0,.92.38A1.21,1.21,0,0,0,265.56,302.66Z" style="fill: rgb(255, 255, 255); transform-origin: 264.64px 301.655px;" id="elsox4qfd7a6" class="animable"></path><path d="M269.32,303.9a2.51,2.51,0,0,1-1-.92,2.51,2.51,0,0,1,1-3.56,3.09,3.09,0,0,1,1.44-.33,2.75,2.75,0,0,1,1.37.33,1.92,1.92,0,0,1,.86.94l-1.12.6a1.22,1.22,0,0,0-1.12-.69,1.27,1.27,0,0,0-.94.38,1.34,1.34,0,0,0-.37,1,1.37,1.37,0,0,0,.37,1,1.31,1.31,0,0,0,.94.37,1.21,1.21,0,0,0,1.12-.69L273,303a1.94,1.94,0,0,1-.86.93,2.75,2.75,0,0,1-1.37.33A3.08,3.08,0,0,1,269.32,303.9Z" style="fill: rgb(255, 255, 255); transform-origin: 270.472px 301.675px;" id="el3f992matpyl" class="animable"></path><path d="M275.93,302.19l-.7.69v1.27h-1.44v-6.88h1.44v3.9l2.12-2h1.72L277,301.28l2.26,2.87h-1.75Z" style="fill: rgb(255, 255, 255); transform-origin: 276.525px 300.71px;" id="elggvf57xwjb7" class="animable"></path></g><g id="freepik--Plant--inject-205" class="animable" style="transform-origin: 104.006px 402.523px;"><path d="M115.31,394.52s6.63-11,12.57-7.3,4.81,13.74-1.16,15a15.33,15.33,0,0,1-10.43-1.47Z" style="fill: rgb(197, 63, 63); transform-origin: 123.559px 394.509px;" id="el9gvxiq4o0zm" class="animable"></path><g id="elh9dkjlmu8ar"><path d="M115.31,394.52s6.63-11,12.57-7.3,4.81,13.74-1.16,15a15.33,15.33,0,0,1-10.43-1.47Z" style="fill: rgb(255, 255, 255); isolation: isolate; opacity: 0.4; transform-origin: 123.559px 394.509px;" class="animable"></path></g><path d="M111.06,424.85s17.67-34.37-1.6-37.73-17.64,28.2-11,36S111.06,424.85,111.06,424.85Z" style="fill: rgb(197, 63, 63); transform-origin: 106.187px 406.985px;" id="eldvpmwxk1o8" class="animable"></path><g id="el6czmd14p325"><path d="M111.06,424.85s17.67-34.37-1.6-37.73-17.64,28.2-11,36S111.06,424.85,111.06,424.85Z" style="fill: rgb(255, 255, 255); isolation: isolate; opacity: 0.5; transform-origin: 106.187px 406.985px;" class="animable"></path></g><path d="M99.81,389.19s2.27-29.72-11.15-29.95-22.22,27.7,6.84,36.45C95.5,395.69,99.68,392.08,99.81,389.19Z" style="fill: rgb(197, 63, 63); transform-origin: 88.0483px 377.464px;" id="elzwylw9vr89f" class="animable"></path><g id="elx22rm3mo0i"><path d="M99.81,389.19s2.27-29.72-11.15-29.95-22.22,27.7,6.84,36.45C95.5,395.69,99.68,392.08,99.81,389.19Z" style="fill: rgb(255, 255, 255); isolation: isolate; opacity: 0.4; transform-origin: 88.0483px 377.464px;" class="animable"></path></g><path d="M83.68,361.19a.25.25,0,0,1-.22-.15,9.24,9.24,0,0,0-.84-1.38.24.24,0,0,1,0-.35.25.25,0,0,1,.35.05,8.51,8.51,0,0,1,.9,1.47.25.25,0,0,1-.12.33A.23.23,0,0,1,83.68,361.19Z" style="fill: rgb(197, 63, 63); transform-origin: 83.2185px 360.225px;" id="elz3djaqut88e" class="animable"></path><path d="M80.23,365.6a.23.23,0,0,1-.14,0,17.84,17.84,0,0,1-3-2.63.25.25,0,0,1,0-.36.25.25,0,0,1,.35,0,17.21,17.21,0,0,0,2.9,2.56.25.25,0,0,1,.07.35A.25.25,0,0,1,80.23,365.6Z" style="fill: rgb(197, 63, 63); transform-origin: 78.7334px 364.075px;" id="elavnq69ipj2c" class="animable"></path><path d="M77.9,369.47a.24.24,0,0,1-.12,0l-2.38-1.32a.25.25,0,1,1,.24-.44L78,369a.26.26,0,0,1,.1.34A.25.25,0,0,1,77.9,369.47Z" style="fill: rgb(197, 63, 63); transform-origin: 76.6984px 368.578px;" id="elpfabi0r93yf" class="animable"></path><path d="M83,381.62a.27.27,0,0,1-.12,0l-2.37-1.33a.25.25,0,1,1,.24-.43l2.38,1.32a.25.25,0,0,1-.13.47Z" style="fill: rgb(197, 63, 63); transform-origin: 81.802px 380.727px;" id="el5zvdpl6ec5u" class="animable"></path><path d="M76.7,383.62l-.42,0a.25.25,0,0,1-.22-.28.26.26,0,0,1,.28-.22,2.86,2.86,0,0,0,2.26-.69.25.25,0,0,1,.33.37A3.4,3.4,0,0,1,76.7,383.62Z" style="fill: rgb(197, 63, 63); transform-origin: 77.5244px 383.003px;" id="eldv4hkyr29ot" class="animable"></path><path d="M79.46,388.34a.25.25,0,0,1-.18-.08.24.24,0,0,1,0-.35,7.06,7.06,0,0,0,1.31-1.67.26.26,0,0,1,.35-.09.25.25,0,0,1,.09.34,7.81,7.81,0,0,1-1.4,1.78A.23.23,0,0,1,79.46,388.34Z" style="fill: rgb(197, 63, 63); transform-origin: 80.1337px 387.228px;" id="el1f3dxqt22ap" class="animable"></path><path d="M83.7,391.88l-.1,0a.25.25,0,0,1-.13-.33c.29-.68.56-1.38.8-2.07a.26.26,0,0,1,.32-.16.25.25,0,0,1,.15.32c-.24.71-.52,1.42-.81,2.1A.26.26,0,0,1,83.7,391.88Z" style="fill: rgb(197, 63, 63); transform-origin: 84.1019px 390.594px;" id="el9yvkm7ldtym" class="animable"></path><path d="M86.49,393.68a.3.3,0,0,1-.15-.05.25.25,0,0,1-.06-.35A10.84,10.84,0,0,0,87.53,391a.25.25,0,0,1,.32-.13.25.25,0,0,1,.14.32,11.52,11.52,0,0,1-1.3,2.36A.26.26,0,0,1,86.49,393.68Z" style="fill: rgb(197, 63, 63); transform-origin: 87.1198px 392.266px;" id="el5umkyj0xw9y" class="animable"></path><path d="M92.91,396.46a.26.26,0,0,1-.21-.11,3.7,3.7,0,0,1-.48-2.77.25.25,0,0,1,.3-.19.25.25,0,0,1,.19.3,3.24,3.24,0,0,0,.41,2.39.24.24,0,0,1-.07.34A.25.25,0,0,1,92.91,396.46Z" style="fill: rgb(197, 63, 63); transform-origin: 92.6475px 394.922px;" id="els1lhvyzsyu9" class="animable"></path><path d="M98.73,386.75a.26.26,0,0,1-.25-.24.26.26,0,0,1,.25-.26,8,8,0,0,0,3.26-.8.25.25,0,0,1,.33.12.25.25,0,0,1-.11.33,8.57,8.57,0,0,1-3.47.85Z" style="fill: rgb(197, 63, 63); transform-origin: 100.412px 386.089px;" id="elsawt7asmpe" class="animable"></path><path d="M99,382.16a6.52,6.52,0,0,1-.88-.07.26.26,0,0,1-.21-.29.25.25,0,0,1,.29-.21,4.93,4.93,0,0,0,2.52-.24.26.26,0,0,1,.32.15.24.24,0,0,1-.15.32A5.58,5.58,0,0,1,99,382.16Z" style="fill: rgb(197, 63, 63); transform-origin: 99.4828px 381.749px;" id="el72bz7n57jq6" class="animable"></path><path d="M100.52,377.19h0l-2.1-.49a.25.25,0,0,1-.19-.3.25.25,0,0,1,.3-.19l2.1.5a.25.25,0,0,1,.19.3A.26.26,0,0,1,100.52,377.19Z" style="fill: rgb(197, 63, 63); transform-origin: 99.525px 376.699px;" id="elm6u4rgt7cpj" class="animable"></path><path d="M94.4,376.3h-.06l-2.1-.5a.25.25,0,0,1-.18-.3.24.24,0,0,1,.3-.18l2.1.49a.25.25,0,0,1,.18.3A.24.24,0,0,1,94.4,376.3Z" style="fill: rgb(197, 63, 63); transform-origin: 93.35px 375.805px;" id="ellmjyvlq8r7l" class="animable"></path><path d="M91.26,372a.23.23,0,0,1-.2-.11.25.25,0,0,1,.06-.35l1.77-1.22a.25.25,0,0,1,.29.41l-1.78,1.22A.24.24,0,0,1,91.26,372Z" style="fill: rgb(197, 63, 63); transform-origin: 92.1495px 371.137px;" id="elod674b4relr" class="animable"></path><path d="M92.45,361.76a.19.19,0,0,1-.14-.05.24.24,0,0,1-.06-.34l1.26-1.75a.25.25,0,0,1,.35-.06.25.25,0,0,1,.06.35l-1.26,1.75A.25.25,0,0,1,92.45,361.76Z" style="fill: rgb(197, 63, 63); transform-origin: 93.0854px 360.637px;" id="elj0gju1qmh3g" class="animable"></path><path d="M97.91,372.8a.23.23,0,0,1-.24-.21.24.24,0,0,1,.2-.28l1.88-.3a.25.25,0,0,1,.29.21.24.24,0,0,1-.21.28l-1.88.3Z" style="fill: rgb(197, 63, 63); transform-origin: 98.8549px 372.403px;" id="elny2m0kveu" class="animable"></path><path d="M97.06,369.17a.25.25,0,0,1,0-.49l1.8-.29a.25.25,0,0,1,.28.21.25.25,0,0,1-.21.29l-1.79.28Z" style="fill: rgb(197, 63, 63); transform-origin: 98.0017px 368.779px;" id="elgb3cueqefy4" class="animable"></path><path d="M94.27,366.26a.23.23,0,0,1-.22-.13.24.24,0,0,1,.1-.34l2.57-1.43a.26.26,0,0,1,.34.1.25.25,0,0,1-.09.34l-2.58,1.43Z" style="fill: rgb(197, 63, 63); transform-origin: 95.5542px 365.296px;" id="elcwlct72vh7f" class="animable"></path><path d="M88.29,361.74a.25.25,0,0,1-.25-.24,15.84,15.84,0,0,0-.29-2.48.26.26,0,0,1,.2-.3.25.25,0,0,1,.29.2,18.25,18.25,0,0,1,.3,2.56.24.24,0,0,1-.24.26Z" style="fill: rgb(197, 63, 63); transform-origin: 88.1434px 360.228px;" id="elrgu8ssavocj" class="animable"></path><path d="M86.09,368.09a.23.23,0,0,1-.19-.1,9.57,9.57,0,0,0-1.79-1.75.25.25,0,0,1,0-.35.24.24,0,0,1,.34-.06,9.79,9.79,0,0,1,1.89,1.86.24.24,0,0,1,0,.35A.3.3,0,0,1,86.09,368.09Z" style="fill: rgb(197, 63, 63); transform-origin: 85.2271px 366.941px;" id="elwacsjn0l5tg" class="animable"></path><path d="M85.62,372.54a10.77,10.77,0,0,1-2-.2.25.25,0,1,1,.1-.49,10.48,10.48,0,0,0,2.24.18.26.26,0,0,1,.26.25.25.25,0,0,1-.25.25Z" style="fill: rgb(197, 63, 63); transform-origin: 84.82px 372.192px;" id="elz6hs1j7llr" class="animable"></path><path d="M85.14,377.64h-.06a.38.38,0,0,1-.26-.19.26.26,0,0,1,.11-.34.25.25,0,0,1,.24,0l0,0,1.42-1.43a.25.25,0,0,1,.36,0,.26.26,0,0,1,0,.35l-1.43,1.43A.59.59,0,0,1,85.14,377.64Z" style="fill: rgb(197, 63, 63); transform-origin: 85.9062px 376.622px;" id="ely3nch2x5y2a" class="animable"></path><path d="M87.13,382.83a.21.21,0,0,1-.18-.09.23.23,0,0,1,0-.35,11.74,11.74,0,0,0,1.52-1.63.25.25,0,0,1,.35-.05.26.26,0,0,1,0,.36,12,12,0,0,1-1.58,1.69A.23.23,0,0,1,87.13,382.83Z" style="fill: rgb(197, 63, 63); transform-origin: 87.8808px 381.745px;" id="elakcg0j6dhkm" class="animable"></path><path d="M93.74,381.42a.25.25,0,0,1-.19-.09.25.25,0,0,1,0-.35,11.17,11.17,0,0,0,1.52-1.63.24.24,0,0,1,.35,0,.25.25,0,0,1,0,.35,13.45,13.45,0,0,1-1.59,1.7A.27.27,0,0,1,93.74,381.42Z" style="fill: rgb(197, 63, 63); transform-origin: 94.485px 380.347px;" id="el3g0yf31zvug" class="animable"></path><path d="M90.74,387.59l-.1,0a.25.25,0,0,1-.14-.33,6.25,6.25,0,0,1,1.22-1.86.25.25,0,0,1,.36,0,.24.24,0,0,1,0,.35,5.49,5.49,0,0,0-1.11,1.7A.26.26,0,0,1,90.74,387.59Z" style="fill: rgb(197, 63, 63); transform-origin: 91.3181px 386.457px;" id="elrpsu8c5xmo" class="animable"></path><path d="M85.22,387.68l-.09,0a.25.25,0,0,1-.14-.33,6.06,6.06,0,0,1,1.22-1.86.25.25,0,0,1,.36.35,5.32,5.32,0,0,0-1.11,1.7A.26.26,0,0,1,85.22,387.68Z" style="fill: rgb(197, 63, 63); transform-origin: 85.8058px 386.547px;" id="elj8u1ehx9fzn" class="animable"></path><path d="M95.25,391h0a.25.25,0,0,1-.19-.29,4.35,4.35,0,0,0-.16-2.32.24.24,0,0,1,.15-.32.25.25,0,0,1,.32.15,4.76,4.76,0,0,1,.18,2.59A.26.26,0,0,1,95.25,391Z" style="fill: rgb(197, 63, 63); transform-origin: 95.2667px 389.53px;" id="el0u52iib0h4r" class="animable"></path><path d="M89.85,367.41l-.11,0a.25.25,0,0,1-.11-.33l1-2,.25.06.2.16-1,2A.25.25,0,0,1,89.85,367.41Z" style="fill: rgb(197, 63, 63); transform-origin: 90.3427px 366.245px;" id="el4sa8dazz16i" class="animable"></path><path d="M78.8,374.66a.19.19,0,0,1-.12,0,7.17,7.17,0,0,1-2-1.71.26.26,0,0,1,0-.35.24.24,0,0,1,.35,0,6.65,6.65,0,0,0,1.83,1.59.25.25,0,0,1,.09.34A.26.26,0,0,1,78.8,374.66Z" style="fill: rgb(197, 63, 63); transform-origin: 77.7978px 373.597px;" id="elwzzz3c6fpz" class="animable"></path><path d="M75,379.66a.26.26,0,0,1-.25-.24.25.25,0,0,1,.24-.26L77.1,379a.25.25,0,0,1,.26.24.25.25,0,0,1-.23.26l-2.09.12Z" style="fill: rgb(197, 63, 63); transform-origin: 76.055px 379.33px;" id="elaoqlaap79zc" class="animable"></path><path d="M108.53,388.39a.24.24,0,0,1-.25-.24,6.38,6.38,0,0,0-.85-2.88.25.25,0,0,1,.43-.25,6.94,6.94,0,0,1,.92,3.11.25.25,0,0,1-.24.26Z" style="fill: rgb(197, 63, 63); transform-origin: 108.094px 386.654px;" id="elvsmol9rt5wa" class="animable"></path><path d="M113,390.05a.25.25,0,0,1-.16-.06.25.25,0,0,1,0-.35,4.07,4.07,0,0,0,.85-3.22.24.24,0,0,1,.2-.29.25.25,0,0,1,.29.2,4.61,4.61,0,0,1-1,3.63A.25.25,0,0,1,113,390.05Z" style="fill: rgb(197, 63, 63); transform-origin: 113.501px 388.088px;" id="elda4eh7xqpeo" class="animable"></path><path d="M102.59,389.81a.23.23,0,0,1-.16-.06,7.9,7.9,0,0,1-1.48-1.68.25.25,0,1,1,.41-.27,8,8,0,0,0,1.39,1.57.25.25,0,0,1,0,.36A.27.27,0,0,1,102.59,389.81Z" style="fill: rgb(197, 63, 63); transform-origin: 101.853px 388.728px;" id="elefh5pdeq9po" class="animable"></path><path d="M96.26,400.71H96.2c-1.09-.25-2.19-.46-3.28-.63a.25.25,0,0,1-.21-.28.25.25,0,0,1,.29-.21c1.1.17,2.21.38,3.31.63a.25.25,0,0,1,.19.3A.25.25,0,0,1,96.26,400.71Z" style="fill: rgb(197, 63, 63); transform-origin: 94.6071px 400.148px;" id="elt08nzls8fim" class="animable"></path><path d="M94.13,407.33a3.43,3.43,0,0,1-2.33-.91.25.25,0,0,1,0-.35.26.26,0,0,1,.36,0,3,3,0,0,0,3.23.48.25.25,0,0,1,.33.11.26.26,0,0,1-.11.34A3.27,3.27,0,0,1,94.13,407.33Z" style="fill: rgb(197, 63, 63); transform-origin: 93.7369px 406.664px;" id="el8drxfgdlaq9" class="animable"></path><path d="M93.42,414.18a.24.24,0,0,1-.22-.14.25.25,0,0,1,.1-.34,25.78,25.78,0,0,1,2.53-1.1.26.26,0,0,1,.33.15.25.25,0,0,1-.15.32,21.87,21.87,0,0,0-2.48,1.08A.2.2,0,0,1,93.42,414.18Z" style="fill: rgb(197, 63, 63); transform-origin: 94.672px 413.382px;" id="el47s61np094q" class="animable"></path><path d="M94.76,420.8a.22.22,0,0,1-.2-.1.25.25,0,0,1,0-.35l2.29-1.62a.23.23,0,0,1,.34.06.25.25,0,0,1,0,.35l-2.29,1.62A.23.23,0,0,1,94.76,420.8Z" style="fill: rgb(197, 63, 63); transform-origin: 95.875px 419.74px;" id="elyoaxuegfnis" class="animable"></path><path d="M116.1,418.82h0a15,15,0,0,1-4.16-1,.25.25,0,0,1-.14-.32.25.25,0,0,1,.33-.14,14.52,14.52,0,0,0,4,.93.24.24,0,0,1,.22.27A.25.25,0,0,1,116.1,418.82Z" style="fill: rgb(197, 63, 63); transform-origin: 114.068px 418.08px;" id="el2mfqu4nzbq" class="animable"></path><path d="M116.93,415.34h-.06c-.76-.2-1.52-.43-2.27-.69a.23.23,0,0,1-.15-.31.24.24,0,0,1,.31-.16c.74.25,1.49.48,2.24.68a.25.25,0,0,1,.17.31A.24.24,0,0,1,116.93,415.34Z" style="fill: rgb(197, 63, 63); transform-origin: 115.806px 414.753px;" id="elw13yc84ax29" class="animable"></path><path d="M119,409.65h0l-3.51-.07a.24.24,0,0,1-.24-.26.23.23,0,0,1,.25-.24l3.5.07a.25.25,0,0,1,.25.25A.25.25,0,0,1,119,409.65Z" style="fill: rgb(197, 63, 63); transform-origin: 117.25px 409.365px;" id="elf3a2ujb2s6" class="animable"></path><path d="M119.91,405.18h0a14,14,0,0,1-2.9-.71.25.25,0,0,1,.17-.47,13,13,0,0,0,2.8.68.26.26,0,0,1,.22.28A.26.26,0,0,1,119.91,405.18Z" style="fill: rgb(197, 63, 63); transform-origin: 118.526px 404.585px;" id="el1saga0m5i8m" class="animable"></path><path d="M118.92,390.79a.24.24,0,0,1-.22-.14A11.71,11.71,0,0,0,117,388a.25.25,0,1,1,.38-.33,12.4,12.4,0,0,1,1.74,2.73.25.25,0,0,1-.12.33A.22.22,0,0,1,118.92,390.79Z" style="fill: rgb(197, 63, 63); transform-origin: 118.04px 389.186px;" id="el895bmel288f" class="animable"></path><path d="M123.48,389a.26.26,0,0,1-.24-.18l-.81-2.45a.25.25,0,0,1,.16-.31.25.25,0,0,1,.32.16l.81,2.45a.25.25,0,0,1-.16.31Z" style="fill: rgb(197, 63, 63); transform-origin: 123.075px 387.523px;" id="el7a9ajywflgj" class="animable"></path><path d="M129.14,389.81h-.09a.25.25,0,0,1-.15-.32,18.88,18.88,0,0,1,1.51-3.18.25.25,0,1,1,.43.25,19.09,19.09,0,0,0-1.47,3.1A.25.25,0,0,1,129.14,389.81Z" style="fill: rgb(197, 63, 63); transform-origin: 129.886px 387.986px;" id="el6qoxkwntzdx" class="animable"></path><path d="M130.6,393.68a.24.24,0,0,1-.25-.23.25.25,0,0,1,.23-.27,3,3,0,0,0,2.23-1.27.24.24,0,0,1,.34-.06.24.24,0,0,1,.07.34,3.51,3.51,0,0,1-2.61,1.49Z" style="fill: rgb(197, 63, 63); transform-origin: 131.806px 392.742px;" id="elgxr1d9ybddu" class="animable"></path><path d="M131.83,402.32h-.06a7.84,7.84,0,0,1-3.7-2.17.25.25,0,1,1,.36-.34,7.38,7.38,0,0,0,3.46,2,.26.26,0,0,1,.19.31A.25.25,0,0,1,131.83,402.32Z" style="fill: rgb(197, 63, 63); transform-origin: 130.031px 401.012px;" id="elpsmbkdjkst9" class="animable"></path><path d="M124.1,404.67a.27.27,0,0,1-.25-.21,28,28,0,0,1-.37-2.9.25.25,0,0,1,.23-.27.24.24,0,0,1,.26.23,26.75,26.75,0,0,0,.38,2.85.25.25,0,0,1-.21.29Z" style="fill: rgb(197, 63, 63); transform-origin: 123.916px 402.98px;" id="el62arvem90cr" class="animable"></path><path d="M122.22,397.15h0a.24.24,0,0,1-.22-.28,8,8,0,0,0,0-1.69.25.25,0,0,1,.23-.27.24.24,0,0,1,.27.23,7.66,7.66,0,0,1,0,1.79A.24.24,0,0,1,122.22,397.15Z" style="fill: rgb(197, 63, 63); transform-origin: 122.275px 396.031px;" id="elxcx3i8cofp" class="animable"></path><path d="M126.34,395.78a.25.25,0,0,1-.16-.06.24.24,0,0,1,0-.35,2.78,2.78,0,0,0,.55-2.36.25.25,0,0,1,.48-.12,3.28,3.28,0,0,1-.65,2.8A.25.25,0,0,1,126.34,395.78Z" style="fill: rgb(197, 63, 63); transform-origin: 126.699px 394.258px;" id="el7y3he7jhinb" class="animable"></path><path d="M117.73,396.6h0a12.43,12.43,0,0,0-2.19-.23.26.26,0,0,1-.24-.26.24.24,0,0,1,.25-.24h0a12.5,12.5,0,0,1,2.27.24.25.25,0,0,1,.2.29A.26.26,0,0,1,117.73,396.6Z" style="fill: rgb(197, 63, 63); transform-origin: 116.662px 396.236px;" id="el6fm9yhem2rs" class="animable"></path><path d="M111.46,401.57h0a.26.26,0,0,1-.22-.28,12.5,12.5,0,0,0,.13-2.2.26.26,0,0,1,.25-.26h0a.25.25,0,0,1,.25.25,13.36,13.36,0,0,1-.13,2.28A.26.26,0,0,1,111.46,401.57Z" style="fill: rgb(197, 63, 63); transform-origin: 111.557px 400.201px;" id="el40e0gslnbfp" class="animable"></path><path d="M108,394.65a.24.24,0,0,1-.21-.12,11.94,11.94,0,0,0-1.79-2.21.25.25,0,0,1,0-.35.26.26,0,0,1,.36,0,12.09,12.09,0,0,1,1.86,2.3.26.26,0,0,1-.08.35A.33.33,0,0,1,108,394.65Z" style="fill: rgb(197, 63, 63); transform-origin: 107.093px 393.274px;" id="elrrmo2aezg2" class="animable"></path><path d="M106.18,399.59a.25.25,0,0,1,0-.5,4,4,0,0,0,2.64-1.59.24.24,0,0,1,.34-.05.25.25,0,0,1,.06.35,4.57,4.57,0,0,1-3,1.79Z" style="fill: rgb(197, 63, 63); transform-origin: 107.598px 398.495px;" id="elsrz6qfm1hd9" class="animable"></path><path d="M107,405.57a.25.25,0,0,1-.19-.09,9.73,9.73,0,0,1-1.31-2.08.25.25,0,0,1,.12-.33.27.27,0,0,1,.34.12,8.92,8.92,0,0,0,1.23,2,.24.24,0,0,1,0,.35A.25.25,0,0,1,107,405.57Z" style="fill: rgb(197, 63, 63); transform-origin: 106.372px 404.313px;" id="elerb4wlz3mjq" class="animable"></path><path d="M105.67,411.46a3.52,3.52,0,0,1-1.27-.23.26.26,0,0,1-.14-.33.24.24,0,0,1,.32-.14c1.29.5,2.76-.05,4.16-.67a.26.26,0,0,1,.33.13.24.24,0,0,1-.13.33A8.46,8.46,0,0,1,105.67,411.46Z" style="fill: rgb(197, 63, 63); transform-origin: 106.669px 410.766px;" id="eluhnm676q9x" class="animable"></path><path d="M104.94,416.06a.2.2,0,0,1-.15-.05.25.25,0,0,1-.05-.35,6.57,6.57,0,0,1,1-1.07.25.25,0,0,1,.32.39,5.93,5.93,0,0,0-1,1A.25.25,0,0,1,104.94,416.06Z" style="fill: rgb(197, 63, 63); transform-origin: 105.421px 415.297px;" id="elvtosjsxdk38" class="animable"></path><path d="M110.52,414.82a.26.26,0,0,1-.19-.41,6.57,6.57,0,0,1,1-1.07.25.25,0,0,1,.35,0,.24.24,0,0,1,0,.35,6,6,0,0,0-1,1A.26.26,0,0,1,110.52,414.82Z" style="fill: rgb(197, 63, 63); transform-origin: 111.019px 414.044px;" id="elp7h4e26f1v" class="animable"></path><path d="M104.56,420.87a.33.33,0,0,1-.13,0,.25.25,0,0,1-.09-.34,10.06,10.06,0,0,1,1.58-2,.25.25,0,0,1,.35.35,9.57,9.57,0,0,0-1.49,1.93A.26.26,0,0,1,104.56,420.87Z" style="fill: rgb(197, 63, 63); transform-origin: 105.313px 419.678px;" id="el84tspskxb2y" class="animable"></path><path d="M100.26,398.29a.25.25,0,0,1-.19-.09,11.63,11.63,0,0,0-1.9-1.81.25.25,0,0,1,0-.35.24.24,0,0,1,.35,0,11.37,11.37,0,0,1,2,1.88.25.25,0,0,1-.19.41Z" style="fill: rgb(197, 63, 63); transform-origin: 99.3382px 397.147px;" id="el8phxe4cx0yq" class="animable"></path><path d="M99.15,405.13h0l-1.2-.12a.25.25,0,0,1-.23-.27.25.25,0,0,1,.27-.23l1.21.12a.23.23,0,0,1,.22.27A.25.25,0,0,1,99.15,405.13Z" style="fill: rgb(197, 63, 63); transform-origin: 98.5713px 404.82px;" id="elitghym5gzj" class="animable"></path><path d="M99.51,410.82h0l-1.53-.28a.25.25,0,0,1-.2-.29.25.25,0,0,1,.29-.2l1.53.27a.26.26,0,0,1,.2.29A.26.26,0,0,1,99.51,410.82Z" style="fill: rgb(197, 63, 63); transform-origin: 98.7893px 410.434px;" id="el82jlebny0v" class="animable"></path><path d="M112,407.44a.23.23,0,0,1-.16-.06.25.25,0,0,1,0-.36l1-1.16a.25.25,0,0,1,.35,0,.23.23,0,0,1,0,.35l-1,1.16A.25.25,0,0,1,112,407.44Z" style="fill: rgb(197, 63, 63); transform-origin: 112.517px 406.615px;" id="elmuge8aovypi" class="animable"></path><path d="M98.8,416.73a.25.25,0,0,1-.07-.49l1.91-.57a.26.26,0,0,1,.31.17.24.24,0,0,1-.17.31l-1.91.57Z" style="fill: rgb(197, 63, 63); transform-origin: 99.7564px 416.196px;" id="el55jqrrgtor8" class="animable"></path><polygon points="121.44 421.83 88.26 421.83 92.99 446.33 116.63 446.33 121.44 421.83" style="fill: rgb(38, 50, 56); transform-origin: 104.85px 434.08px;" id="elnvxr15ahaf" class="animable"></polygon><rect x="86.36" y="421.83" width="36.51" height="5.89" style="fill: rgb(38, 50, 56); transform-origin: 104.615px 424.775px;" id="eliwq7nc5bap" class="animable"></rect><polygon points="89.4 427.72 90.07 431.2 119.94 429.46 120.28 427.72 89.4 427.72" id="elftrv4ng2lym" class="animable" style="transform-origin: 104.84px 429.46px;"></polygon></g><g id="freepik--Character--inject-205" class="animable" style="transform-origin: 366.391px 345.62px;"><path d="M427.61,324.42s-2.4,48-12.74,56.28h11.06s9.87-16.36,10.6-56.28Z" style="fill: rgb(38, 50, 56); transform-origin: 425.7px 352.56px;" id="el1emym6tud1n" class="animable"></path><g id="elua0cfm3zt7p"><path d="M427.61,324.42s-2.4,48-12.74,56.28h11.06s9.87-16.36,10.6-56.28Z" style="fill: rgb(255, 255, 255); isolation: isolate; opacity: 0.6; transform-origin: 425.7px 352.56px;" class="animable"></path></g><g id="eljmroddxucfk"><path d="M378.52,376.72h57.36a0,0,0,0,1,0,0v3.47a4.49,4.49,0,0,1-4.49,4.49H383a4.49,4.49,0,0,1-4.49-4.49v-3.47A0,0,0,0,1,378.52,376.72Z" style="fill: rgb(197, 63, 63); transform-origin: 407.195px 380.7px; transform: rotate(180deg);" class="animable"></path></g><g id="elqanjxiw0su"><path d="M378.52,376.72h57.36a0,0,0,0,1,0,0v3.47a4.49,4.49,0,0,1-4.49,4.49H383a4.49,4.49,0,0,1-4.49-4.49v-3.47A0,0,0,0,1,378.52,376.72Z" style="isolation: isolate; opacity: 0.3; transform-origin: 407.195px 380.7px; transform: rotate(180deg);" class="animable"></path></g><path d="M433.89,431.63l-22.11-1.93v-29H404v29l-22.19,1.94a3.81,3.81,0,0,0-3.44,3.8v2.94h59v-2.94A3.81,3.81,0,0,0,433.89,431.63Z" style="fill: rgb(38, 50, 56); transform-origin: 407.87px 419.54px;" id="el2yymrzz2s1g" class="animable"></path><path d="M385.52,442a5.08,5.08,0,1,1-5.08-5.08A5.08,5.08,0,0,1,385.52,442Z" style="fill: rgb(38, 50, 56); transform-origin: 380.44px 442px;" id="el4lubxfeivs9" class="animable"></path><path d="M430.18,442a5.08,5.08,0,1,0,5.08-5.08A5.08,5.08,0,0,0,430.18,442Z" style="fill: rgb(38, 50, 56); transform-origin: 435.26px 442px;" id="eljdbc15k3wwc" class="animable"></path><path d="M402.66,381.86h10.45a0,0,0,0,1,0,0v21a3.71,3.71,0,0,1-3.71,3.71h-3a3.71,3.71,0,0,1-3.71-3.71v-21A0,0,0,0,1,402.66,381.86Z" style="fill: rgb(38, 50, 56); transform-origin: 407.885px 394.215px;" id="elldgz097n55" class="animable"></path><g id="elwy6pvfuvjoc"><path d="M402.66,381.86h10.45a0,0,0,0,1,0,0v21a3.71,3.71,0,0,1-3.71,3.71h-3a3.71,3.71,0,0,1-3.71-3.71v-21A0,0,0,0,1,402.66,381.86Z" style="fill: rgb(255, 255, 255); isolation: isolate; opacity: 0.6; transform-origin: 407.885px 394.215px;" class="animable"></path></g><g id="elz6b63vfuvs"><rect x="376.34" y="380.7" width="61.73" height="3.98" rx="1.81" style="fill: rgb(38, 50, 56); transform-origin: 407.205px 382.69px; transform: rotate(180deg);" class="animable"></rect></g><g id="el6a25hh7rlvc"><rect x="376.34" y="380.7" width="61.73" height="3.98" rx="1.81" style="fill: rgb(255, 255, 255); isolation: isolate; opacity: 0.6; transform-origin: 407.205px 382.69px; transform: rotate(180deg);" class="animable"></rect></g><path d="M441.68,334.93H424c-5.19,0-8.93-4.66-8.37-10.42l.76-7.68c.56-5.75,5.23-10.41,10.42-10.41h17.72c5.19,0,8.94,4.66,8.37,10.41l-.75,7.68C451.54,330.27,446.87,334.93,441.68,334.93Z" style="fill: rgb(197, 63, 63); transform-origin: 434.266px 320.675px;" id="elp9587a85kpq" class="animable"></path><g id="elvyzv52v79uj"><path d="M441.68,334.93H424c-5.19,0-8.93-4.66-8.37-10.42l.76-7.68c.56-5.75,5.23-10.41,10.42-10.41h17.72c5.19,0,8.94,4.66,8.37,10.41l-.75,7.68C451.54,330.27,446.87,334.93,441.68,334.93Z" style="isolation: isolate; opacity: 0.3; transform-origin: 434.266px 320.675px;" class="animable"></path></g><g id="el54os977b9ns"><polygon points="437.91 306.42 432.2 334.93 426.82 334.93 431.13 306.42 437.91 306.42" style="isolation: isolate; opacity: 0.2; transform-origin: 432.365px 320.675px;" class="animable"></polygon></g><g id="el99z9oy2uz0m"><polygon points="436.11 334.93 435.86 338.37 426.48 338.37 426.82 334.93 436.11 334.93" style="isolation: isolate; opacity: 0.2; transform-origin: 431.295px 336.65px;" class="animable"></polygon></g><polygon points="345.35 423.13 339.55 442.02 330.94 441.28 334.26 420.05 345.35 423.13" style="fill: rgb(233, 179, 118); transform-origin: 338.145px 431.035px;" id="el5e7ixmcpaiy" class="animable"></polygon><path d="M338.05,439.48a2.78,2.78,0,0,1-3.74.22l-.23-1.59a2.1,2.1,0,0,0-2.49-2.05,3.58,3.58,0,0,0-2.3,2.2,8,8,0,0,1-2.74,3.36s-6.57,3.27-8.92,4c-1.41.43-3.29,1.08-4.3,2.58a8,8,0,0,0-.77,1.55,6.72,6.72,0,0,0-.18,1.63H329a7.41,7.41,0,0,1,2.41-1,2.27,2.27,0,0,1,1.86,1.16l6.06,0s.11-.93.28-2.29h0c.08-.61.16-1.31.25-2.05.39-3.16,1-7.15,1.11-8.05C341.18,437.64,338.05,439.48,338.05,439.48Z" style="fill: rgb(38, 50, 56); transform-origin: 326.68px 443.782px;" id="el1vkqv0u29gl" class="animable"></path><path d="M323,443.23a.23.23,0,0,1,.28,0,2.62,2.62,0,0,1,.95,1c.12.24-.24.45-.36.22a2.24,2.24,0,0,0-.84-.91.2.2,0,0,1,0-.32Z" style="fill: rgb(197, 63, 63); transform-origin: 323.602px 443.866px;" id="el6mjm39vceq" class="animable"></path><path d="M324.3,442.54a.21.21,0,0,1,.27,0,2.72,2.72,0,0,1,1,1c.11.23-.25.45-.37.22a2.39,2.39,0,0,0-.83-.92.19.19,0,0,1,0-.31Z" style="fill: rgb(197, 63, 63); transform-origin: 324.94px 443.174px;" id="eloqmbr741rjs" class="animable"></path><path d="M325.62,441.89a.24.24,0,0,1,.28,0,2.65,2.65,0,0,1,1,1c.12.23-.24.45-.36.21a2.38,2.38,0,0,0-.84-.91.2.2,0,0,1,0-.32Z" style="fill: rgb(197, 63, 63); transform-origin: 326.272px 442.524px;" id="el8dm4mi6w18o" class="animable"></path><g id="elelqqvtcl2r"><path d="M312.89,449c-.11.24-.23.49-.33.77a6.72,6.72,0,0,0-.18,1.63H329a7.41,7.41,0,0,1,2.41-1,2.27,2.27,0,0,1,1.86,1.16l6.06,0s.11-.93.28-2.29h0l0-.34Z" style="fill: rgb(255, 255, 255); isolation: isolate; opacity: 0.2; transform-origin: 325.995px 450.245px;" class="animable"></path></g><path d="M325.88,442.33l-.18-.15a7.82,7.82,0,0,1-1.65-1.69,2.16,2.16,0,0,1-.13-1.68.89.89,0,0,1,.7-.63.91.91,0,0,1,.76.47,3.33,3.33,0,0,1,.57,1.69,10.18,10.18,0,0,1-.05,1.75Zm-1.23-3.9h0c-.23,0-.4.25-.48.47a1.94,1.94,0,0,0,.13,1.48,6.66,6.66,0,0,0,1.39,1.46,9.15,9.15,0,0,0,0-1.48,3.21,3.21,0,0,0-.52-1.57A.74.74,0,0,0,324.65,438.43Z" style="fill: rgb(197, 63, 63); transform-origin: 324.887px 440.255px;" id="ele3fx6q6z4x" class="animable"></path><path d="M325.64,442.25l.09-.21a11,11,0,0,1,.78-1.58,3.33,3.33,0,0,1,1.3-1.22.91.91,0,0,1,.9-.05.89.89,0,0,1,.32.88,2.19,2.19,0,0,1-.92,1.42,8.06,8.06,0,0,1-2.24.72Zm2.71-2.91a1.09,1.09,0,0,0-.43.12,3.23,3.23,0,0,0-1.2,1.14,10.09,10.09,0,0,0-.67,1.31,6.72,6.72,0,0,0,1.92-.62,2,2,0,0,0,.81-1.26.63.63,0,0,0-.21-.63A.4.4,0,0,0,328.35,439.34Z" style="fill: rgb(197, 63, 63); transform-origin: 327.344px 440.672px;" id="eln16rz17lnca" class="animable"></path><polygon points="313.51 420.42 302.17 436.61 294.21 433.25 303.91 414.08 313.51 420.42" style="fill: rgb(233, 179, 118); transform-origin: 303.86px 425.345px;" id="elv1ndx678idh" class="animable"></polygon><path d="M299,445.67l-5.75-1.91a2.29,2.29,0,0,0-1.41-1.68,7.77,7.77,0,0,0-2.6.17l-15.83-5.11a5.88,5.88,0,0,1,.67-1.5,7.07,7.07,0,0,1,1.21-1.23c1.42-1.12,3.41-1.16,4.88-1.14,2.47,0,9.72-1,9.72-1a8.06,8.06,0,0,0,3.64-2.36,3.57,3.57,0,0,1,2.87-1.38,2.1,2.1,0,0,1,1.73,2.72l-.26,1.58a2.79,2.79,0,0,0,3.63.94s3.53-.79,2.88.65c-.38.82-2.19,4.43-3.53,7.32-.32.67-.61,1.31-.87,1.87h0Z" style="fill: rgb(38, 50, 56); transform-origin: 288.935px 437.1px;" id="el4an4pz5egnd" class="animable"></path><path d="M286.07,432.66a.24.24,0,0,1,.27.07,2.65,2.65,0,0,1,.59,1.28c0,.26-.37.35-.42.09A2.31,2.31,0,0,0,286,433a.19.19,0,0,1,.07-.31Z" style="fill: rgb(197, 63, 63); transform-origin: 286.438px 433.45px;" id="elvendbougxvl" class="animable"></path><path d="M287.51,432.4a.22.22,0,0,1,.26.07,2.65,2.65,0,0,1,.59,1.28c0,.25-.37.35-.41.09a2.39,2.39,0,0,0-.51-1.13.2.2,0,0,1,.06-.31Z" style="fill: rgb(197, 63, 63); transform-origin: 287.875px 433.188px;" id="elsk6341l5zss" class="animable"></path><path d="M289,432.2a.21.21,0,0,1,.27.06,2.7,2.7,0,0,1,.59,1.28c0,.26-.37.35-.41.1a2.23,2.23,0,0,0-.52-1.13.2.2,0,0,1,.07-.31Z" style="fill: rgb(197, 63, 63); transform-origin: 289.372px 432.981px;" id="el10twg8r1edga" class="animable"></path><g id="elcmrh99fmup5"><path d="M274.67,435a7.09,7.09,0,0,0-.55.63,5.88,5.88,0,0,0-.67,1.5l15.83,5.11a7.77,7.77,0,0,1,2.6-.17,2.29,2.29,0,0,1,1.41,1.68l5.75,1.91,1-2.1h0c0-.1.09-.21.14-.31Z" style="fill: rgb(255, 255, 255); isolation: isolate; opacity: 0.2; transform-origin: 286.815px 440.33px;" class="animable"></path></g><path d="M289.07,432.69l-.12-.19a7.92,7.92,0,0,1-1.05-2.12,2.22,2.22,0,0,1,.39-1.64.88.88,0,0,1,.86-.38.89.89,0,0,1,.58.68,3.33,3.33,0,0,1,0,1.78,10.52,10.52,0,0,1-.58,1.66Zm-.07-4.1a.72.72,0,0,0-.51.3,2,2,0,0,0-.34,1.46,6.61,6.61,0,0,0,.88,1.81,8.57,8.57,0,0,0,.48-1.4,3.17,3.17,0,0,0,0-1.65c-.06-.17-.18-.45-.41-.51Z" style="fill: rgb(197, 63, 63); transform-origin: 288.862px 430.52px;" id="elhlqte2ivtd" class="animable"></path><path d="M290.58,432.67a13.88,13.88,0,0,1-1.48-.1l-.23,0,.15-.17a9.76,9.76,0,0,1,1.23-1.26,3.49,3.49,0,0,1,1.62-.77.94.94,0,0,1,.86.23.87.87,0,0,1,0,.94,2.14,2.14,0,0,1-1.3,1.07A3.13,3.13,0,0,1,290.58,432.67Zm-1.21-.32a6.27,6.27,0,0,0,2,0,1.91,1.91,0,0,0,1.16-.94.64.64,0,0,0,0-.67.76.76,0,0,0-.64-.14,3.29,3.29,0,0,0-1.49.71A8.6,8.6,0,0,0,289.37,432.35Z" style="fill: rgb(197, 63, 63); transform-origin: 290.869px 431.511px;" id="elj17bibnnkyb" class="animable"></path><g id="freepik--group--inject-205" class="animable" style="transform-origin: 358.95px 389.46px;"><path d="M383.93,350.77s-49.75,8-57.61,14.64c-8.54,7.17-34.15,59-34.15,59l16.38,7.18s22.86-41.37,26.9-44.18,55-14.44,55-14.44Z" style="fill: rgb(38, 50, 56); transform-origin: 341.31px 391.18px;" id="el6wisfhvnqnt" class="animable"></path><g id="elagyw8215e8a"><path d="M383.71,351.59,380.89,356l-29.8,1.33c6.88-1.79,17.93-3.86,30.35-6.21Z" style="isolation: isolate; opacity: 0.4; transform-origin: 367.4px 354.225px;" class="animable"></path></g><g id="elgzth461kq3t"><path d="M336.36,361.29a45.38,45.38,0,0,0-2.5,8.12c-.63,3-4.74,26.73-4.53,26.41s8.5-10.27,8.5-10.27l4.84-26.19Z" style="isolation: isolate; opacity: 0.4; transform-origin: 335.996px 377.592px;" class="animable"></path></g><path d="M323.63,431.32l8.76-40.15L338,365.65a10.2,10.2,0,0,1,9.13-8l34.09-1.44,3.72-10.6,40.79,5.57s-.58,17.85-5.56,24.39c-3.9,5.12-58.29,5.79-62.33,7.11l-14.24,50.63Z" style="fill: rgb(38, 50, 56); transform-origin: 374.68px 389.46px;" id="el54y2yj3mza" class="animable"></path></g><path d="M377.83,279.92c-2.53-1.23-5.07-2.41-7.49-3.77,6.14-3.93,15.77-8.5,21.19-11.56l-2-5.26a162.15,162.15,0,0,0-15.45,4.93,77.58,77.58,0,0,0-11.55,5.25c-2.05,1.25-4.15,2.65-5.05,5.23-1.33,4.06,1.6,6.5,4.46,8.63,8,5.74,16.78,9.76,25.83,13.42L392,286.23C387.31,284.21,382.47,282.08,377.83,279.92Z" style="fill: rgb(233, 179, 118); transform-origin: 374.575px 278.06px;" id="elfym5yueqpn" class="animable"></path><path d="M387.39,261.59l1.48-6.36a3,3,0,0,1,1.16-1.74l7.28-5.26a1.66,1.66,0,0,1,0,1.88l1.8-.71a1.66,1.66,0,0,1-.6,2.08,31.33,31.33,0,0,0-3.08,3l4.13-1.95s1.05.39,0,1.69-4.35,3-4.35,3-.56,6.73-1.77,7.9-5.26.81-5.26.81Z" style="fill: rgb(233, 179, 118); transform-origin: 393.708px 257.106px;" id="eleacr31116e4" class="animable"></path><g id="ells13judd58d"><polygon points="373.44 277.67 368.41 287.59 369.66 288.32 374.4 278.24 373.44 277.67" style="isolation: isolate; opacity: 0.2; transform-origin: 371.405px 282.995px;" class="animable"></polygon></g><path d="M459.37,278.07c-.33-4.33-4.42-6.08-7.5-7.85a139.44,139.44,0,0,0-21.37-8.63l-2.34,5.14c4.39,2.83,11.85,7.12,17.35,10.79-6.76,3.44-15.1,6.9-21.12,9.68l4.43,10.5a180.55,180.55,0,0,0,20.74-10,64.52,64.52,0,0,0,6.86-4.41l.66-.49A5.66,5.66,0,0,0,459.37,278.07Z" style="fill: rgb(233, 179, 118); transform-origin: 441.881px 279.645px;" id="el3lihakl316l" class="animable"></path><g id="el7v6uhkw47d2"><polygon points="445.51 277.53 449.91 276.39 444.21 276.67 445.51 277.53" style="isolation: isolate; opacity: 0.2; transform-origin: 447.06px 276.96px;" class="animable"></polygon></g><path d="M380.15,350l4.6-28.53,4-36.65,14.12-.13,10.86-.27,11.67.62,6.82,18.53s-3.85,25.91-4,27.26c-.14,1.65-1.89,30-1.89,30C407,362.06,379.63,351.41,380.15,350Z" style="fill: rgb(197, 63, 63); transform-origin: 406.181px 322.674px;" id="elbdxjia1grln" class="animable"></path><path d="M386.64,304.1c-3.43-1.91-12.23-8.14-15.74-10.1l-3.22-1.79,7.26-15.47s8.7,3.46,16.78,7.3a2.78,2.78,0,0,1,1.07-.3c.4,0,1.82,2.22,1.82,2.22Z" style="fill: rgb(197, 63, 63); transform-origin: 381.145px 290.42px;" id="elf1fqufiyhpb" class="animable"></path><g id="elyt3hg4adhe"><path d="M432.2,303.58l-5.59-6.4s-.7,6.76,5,10.23Z" style="isolation: isolate; opacity: 0.2; transform-origin: 429.391px 302.295px;" class="animable"></path></g><path d="M432.2,303.58l17.8-9.15L442.1,279a100.46,100.46,0,0,0-16.72,6C419.91,287.63,424.93,301.26,432.2,303.58Z" style="fill: rgb(197, 63, 63); transform-origin: 436.533px 291.29px;" id="elb2rnuu0etb7" class="animable"></path><g id="elb9u77ibvxw6"><path d="M415.52,348l-.08,0a43.59,43.59,0,0,1-21.32-17,.25.25,0,1,1,.42-.28,43.16,43.16,0,0,0,21.07,16.84.26.26,0,0,1,.15.33A.25.25,0,0,1,415.52,348Z" style="opacity: 0.2; transform-origin: 404.926px 339.304px;" class="animable"></path></g><g id="el1cthktpxgkw"><polygon points="386.64 304.1 387.49 291.3 383.95 302.47 386.64 304.1" style="isolation: isolate; opacity: 0.2; transform-origin: 385.72px 297.7px;" class="animable"></polygon></g><path d="M415.67,284.41s-.73-5.23,2.33-14.3l-.47-.25c.42-1.27.87-2.44,1.28-3.45v0l-12.9,7.21c.17,2.95-1.13,8.58-1.87,10.95,0,0-2.73,5.21,3,5.65C411.3,290.5,415.67,284.41,415.67,284.41Z" style="fill: rgb(233, 179, 118); transform-origin: 411.1px 278.32px;" id="el8u58x8sm0tp" class="animable"></path><g id="elbe5pmcb58ug"><path d="M405.53,277.7l7.29-1.31c-.75,2.22-2.85,4.79-7.89,4.79A22.38,22.38,0,0,0,405.53,277.7Z" style="opacity: 0.2; transform-origin: 408.875px 278.785px;" class="animable"></path></g><path d="M398.18,251.5c-1.6,2.84-2.4,9.21,2.28,8.08S400.94,246.62,398.18,251.5Z" style="fill: rgb(38, 50, 56); transform-origin: 399.747px 255.019px;" id="elgfdmxxkb5a" class="animable"></path><path d="M419.18,260.27c-1.19,7.93-1.71,12.42-6.1,16.12-6.6,5.56-15.91,1.15-17.11-7-1.08-7.33,1-19.06,9.14-21.47A11.06,11.06,0,0,1,419.18,260.27Z" style="fill: rgb(233, 179, 118); transform-origin: 407.513px 263.167px;" id="elmyk1sa7jw7o" class="animable"></path><path d="M421.67,249.87c-.71-4.49-6.17-7.41-9.45-5.44-.48.29,2.88,1.79,2.5,1.62l-.33,6.49c.48-.06,1.36.57,1.71,2.08,0,0-1.91,8.34,1.24,12.18C426.31,263.58,427.42,252.24,421.67,249.87Z" style="fill: rgb(38, 50, 56); transform-origin: 418.694px 255.302px;" id="el8j3xakpiuz" class="animable"></path><path d="M421.74,267.19a7.48,7.48,0,0,1-4.13,4.06c-2.49,1-4-1.19-3.57-3.68.4-2.24,2.18-5.45,4.79-5.36A3.46,3.46,0,0,1,421.74,267.19Z" style="fill: rgb(233, 179, 118); transform-origin: 418.031px 266.853px;" id="elx394zaz6wsp" class="animable"></path><path d="M407.57,261.56c-.07.82-.56,1.44-1.1,1.38s-.9-.75-.83-1.57.56-1.43,1.1-1.38S407.64,260.75,407.57,261.56Z" style="fill: rgb(38, 50, 56); transform-origin: 406.605px 261.466px;" id="els2jjcnzx8h" class="animable"></path><path d="M399.56,261c-.07.81-.56,1.43-1.1,1.38s-.9-.76-.83-1.57.56-1.44,1.09-1.39S399.63,260.2,399.56,261Z" style="fill: rgb(38, 50, 56); transform-origin: 398.595px 260.9px;" id="elsxjm8ckhnm" class="animable"></path><path d="M402.2,260.79s-2.94,3.83-3.91,5.4a3.85,3.85,0,0,0,3,.83Z" style="fill: rgb(213, 135, 69); transform-origin: 400.245px 263.926px;" id="ela1mlnu12mse" class="animable"></path><path d="M406.7,256.75a.38.38,0,0,1,.35.17,3.07,3.07,0,0,0,2.38,1.44.4.4,0,0,1,.39.38.38.38,0,0,1-.38.39,3.84,3.84,0,0,1-3-1.79.38.38,0,0,1,.1-.53A.32.32,0,0,1,406.7,256.75Z" style="fill: rgb(38, 50, 56); transform-origin: 408.097px 257.939px;" id="el5lr61n8e52s" class="animable"></path><path d="M399.42,255.5a.4.4,0,0,1,.2.09.38.38,0,0,1,.05.54,3.77,3.77,0,0,1-3.17,1.43.4.4,0,0,1-.34-.43.38.38,0,0,1,.42-.34,2.89,2.89,0,0,0,2.5-1.15A.38.38,0,0,1,399.42,255.5Z" style="fill: rgb(38, 50, 56); transform-origin: 397.959px 256.532px;" id="elnp66gma6fbc" class="animable"></path><path d="M392.68,247.59a3.94,3.94,0,0,1,4.59-3.11,2.9,2.9,0,0,1,5.11-2.73,2.43,2.43,0,0,1,2.63-2.06,4,4,0,0,1,2.93,2.06,5.76,5.76,0,0,0,1.28,1.87c1,.7,2.29.34,3.48.25a7,7,0,0,1,5.47,2,7.12,7.12,0,0,1,2,5.47c1.1.3,1.65,1.19,2.36,2.08l-6.11,1c-1.71-3.2-6.33-.73-8.65.15a11.46,11.46,0,0,1-4.56.63c-1.27,0-1.84-1-1.86-2.23a7.33,7.33,0,0,1-6-.2A5.09,5.09,0,0,1,392.68,247.59Z" style="fill: rgb(38, 50, 56); transform-origin: 407.582px 247.452px;" id="elu3hwncrvid" class="animable"></path><path d="M421.31,250.29a.26.26,0,0,1-.21-.11.24.24,0,0,1,.07-.34,7.72,7.72,0,0,1,3.93-1.44.25.25,0,0,1,0,.5,7.28,7.28,0,0,0-3.66,1.35A.25.25,0,0,1,421.31,250.29Z" style="fill: rgb(38, 50, 56); transform-origin: 423.204px 249.345px;" id="elcqx7ncbjpo" class="animable"></path><path d="M421.46,250.21a.24.24,0,0,1-.14-.05.24.24,0,0,1-.07-.34,6.21,6.21,0,0,0,1-4.29.26.26,0,0,1,.21-.29.25.25,0,0,1,.28.21,6.65,6.65,0,0,1-1.06,4.65A.23.23,0,0,1,421.46,250.21Z" style="fill: rgb(38, 50, 56); transform-origin: 422.007px 247.725px;" id="elng5zdhgsxrh" class="animable"></path><path d="M402.07,272.15a3.12,3.12,0,0,1,.35-2.82,3.24,3.24,0,0,1,2.63-1.2,3.91,3.91,0,0,1,2.65,1.22,1.9,1.9,0,0,1,.61,1.31,1.62,1.62,0,0,1-1,1.29,4.33,4.33,0,0,1-1.68.27,5.36,5.36,0,0,0-1.69.24,2.42,2.42,0,0,1-.77.26S402.27,272.79,402.07,272.15Z" style="fill: rgb(38, 50, 56); transform-origin: 405.096px 270.425px;" id="elu0grzafmip" class="animable"></path><path d="M406.87,268.69c-.24.05-4,.85-4.15.79s-.13-.3-.11-.38a2.83,2.83,0,0,1,.3-.3l.1-.07a3.3,3.3,0,0,1,2-.64A3.71,3.71,0,0,1,406.87,268.69Z" style="fill: rgb(255, 255, 255); transform-origin: 404.733px 268.786px;" id="elzms7lc70khp" class="animable"></path><path d="M404.3,271.23a7.6,7.6,0,0,1,3.89-.12,1.76,1.76,0,0,1-.88.84,4.33,4.33,0,0,1-1.68.27,5.36,5.36,0,0,0-1.69.24,2.42,2.42,0,0,1-.77.26,1.55,1.55,0,0,1-.46,0A3.33,3.33,0,0,1,404.3,271.23Z" style="fill: rgb(222, 87, 83); transform-origin: 405.45px 271.825px;" id="elze7qbkey44r" class="animable"></path><g id="elmm61tlonev"><path d="M416.27,267.14h0a.25.25,0,0,1-.2-.3,4.23,4.23,0,0,1,1-1.95,2.75,2.75,0,0,1,1.6-1,1.68,1.68,0,0,1,1.74.78.23.23,0,0,1-.09.33.24.24,0,0,1-.34-.09,1.23,1.23,0,0,0-1.23-.53,2.27,2.27,0,0,0-1.3.8,3.74,3.74,0,0,0-.86,1.72A.25.25,0,0,1,416.27,267.14Z" style="opacity: 0.2; transform-origin: 418.255px 265.506px;" class="animable"></path></g><path d="M430.83,262.31l-2.43-8.07a2.23,2.23,0,0,0-.85-1.16l-6.64-4.6a1.75,1.75,0,0,0,0,2l-1.8-.74a1.76,1.76,0,0,0,.6,2.15,32.69,32.69,0,0,1,3.08,3.1l-4.13-2s-1.05.4,0,1.75,4.35,3.16,4.35,3.16.75,6.29,1.95,7.5,5.08,1.51,5.08,1.51Z" style="fill: rgb(233, 179, 118); transform-origin: 424.512px 257.695px;" id="elx8os6cm8jy9" class="animable"></path></g><g id="freepik--Table--inject-205" class="animable" style="transform-origin: 331.17px 361.63px;"><path d="M357.38,320.73c.17,2.1-1.17,3.8-3,3.8H296.85a3.94,3.94,0,0,1-3.6-3.8l-3.42-42.35a3.83,3.83,0,0,1,.08-1.23,3,3,0,0,1,2.9-2.57h57.55a4,4,0,0,1,3.6,3.8Z" style="fill: rgb(38, 50, 56); isolation: isolate; transform-origin: 323.603px 299.555px;" id="elac2fv745xfd" class="animable"></path><g id="el9lh2rk5vwq8"><path d="M357.38,320.73c.17,2.1-1.17,3.8-3,3.8H296.85a3.94,3.94,0,0,1-3.6-3.8l-3.42-42.35a3.83,3.83,0,0,1,.08-1.23,3,3,0,0,1,2.9-2.57h57.55a4,4,0,0,1,3.6,3.8Z" style="fill: rgb(255, 255, 255); opacity: 0.7; transform-origin: 323.603px 299.555px;" class="animable"></path></g><path d="M354.19,324.53H296.85a3.94,3.94,0,0,1-3.6-3.8l-3.42-42.35a3.83,3.83,0,0,1,.08-1.23h57.34a4,4,0,0,1,3.6,3.8l3.42,42.35A4.12,4.12,0,0,1,354.19,324.53Z" style="fill: rgb(38, 50, 56); isolation: isolate; transform-origin: 322.049px 300.84px;" id="el88ma0pntyj" class="animable"></path><g id="el38szf48jle5"><path d="M354.19,324.53H296.85a3.94,3.94,0,0,1-3.6-3.8l-3.42-42.35a3.83,3.83,0,0,1,.08-1.23h57.34a4,4,0,0,1,3.6,3.8l3.42,42.35A4.12,4.12,0,0,1,354.19,324.53Z" style="fill: rgb(255, 255, 255); isolation: isolate; opacity: 0.5; transform-origin: 322.049px 300.84px;" class="animable"></path></g><polygon points="315.61 314.66 327.17 314.71 324.94 335.55 336.3 335.72 336.3 338.18 305.69 338.25 305.69 335.83 313.07 335.69 315.61 314.66" style="fill: rgb(38, 50, 56); isolation: isolate; transform-origin: 320.995px 326.455px;" id="ellk0dgh4qhda" class="animable"></polygon><g id="el2nwi3tsvbpl"><path d="M327.17,314.71c0,.31,2.57,9.82,2.57,9.82h-3.62Z" style="opacity: 0.3; transform-origin: 327.93px 319.62px;" class="animable"></path></g><g id="elozbs0mn42i"><polygon points="314.42 324.53 315.61 314.66 312.62 324.53 314.42 324.53" style="opacity: 0.3; transform-origin: 314.115px 319.595px;" class="animable"></polygon></g><rect x="282.95" y="339.31" width="3.98" height="109.37" style="fill: rgb(38, 50, 56); isolation: isolate; transform-origin: 284.94px 393.995px;" id="elyozn5g6bclj" class="animable"></rect><g id="eln175fwthqfk"><rect x="282.95" y="339.31" width="3.98" height="109.37" style="fill: rgb(255, 255, 255); isolation: isolate; opacity: 0.3; transform-origin: 284.94px 393.995px;" class="animable"></rect></g><rect x="254.37" y="339.31" width="3.98" height="109.37" style="fill: rgb(38, 50, 56); isolation: isolate; transform-origin: 256.36px 393.995px;" id="el07f33yz1x42l" class="animable"></rect><g id="el1uwwchq6rjy"><rect x="254.37" y="339.31" width="3.98" height="109.37" style="fill: rgb(255, 255, 255); isolation: isolate; opacity: 0.3; transform-origin: 256.36px 393.995px;" class="animable"></rect></g><g id="elffs8ok2bsht"><polygon points="254.37 346.23 254.37 353.28 258.35 351.51 258.35 345.63 254.37 346.23" style="opacity: 0.2; transform-origin: 256.36px 349.455px;" class="animable"></polygon></g><g id="el2argv53zcdb"><polygon points="282.95 346.23 282.95 353.28 286.93 351.51 286.93 345.63 282.95 346.23" style="opacity: 0.2; transform-origin: 284.94px 349.455px;" class="animable"></polygon></g><rect x="367.68" y="339.31" width="3.98" height="109.37" style="fill: rgb(38, 50, 56); isolation: isolate; transform-origin: 369.67px 393.995px;" id="elpqc4eth5lua" class="animable"></rect><g id="ellal1rzp2ccq"><rect x="367.68" y="339.31" width="3.98" height="109.37" style="fill: rgb(255, 255, 255); isolation: isolate; opacity: 0.3; transform-origin: 369.67px 393.995px;" class="animable"></rect></g><g id="el3436opmtdt"><polygon points="367.68 346.23 367.68 353.28 371.66 351.51 371.66 345.63 367.68 346.23" style="opacity: 0.2; transform-origin: 369.67px 349.455px;" class="animable"></polygon></g><rect x="404.19" y="339.31" width="3.98" height="109.37" style="fill: rgb(38, 50, 56); isolation: isolate; transform-origin: 406.18px 393.995px;" id="elqld2nh1l5ta" class="animable"></rect><g id="elrxzvs2c14u"><rect x="404.19" y="339.31" width="3.98" height="109.37" style="fill: rgb(255, 255, 255); isolation: isolate; opacity: 0.3; transform-origin: 406.18px 393.995px;" class="animable"></rect></g><g id="elt6u9s92bzsp"><polygon points="404.19 346.15 404.19 353.21 408.16 351.43 408.16 345.55 404.19 346.15" style="opacity: 0.2; transform-origin: 406.175px 349.38px;" class="animable"></polygon></g><rect x="249.22" y="338.13" width="163.9" height="8.1" style="fill: rgb(38, 50, 56); isolation: isolate; transform-origin: 331.17px 342.18px;" id="elfu1abyzejpv" class="animable"></rect><g id="el4zocyl3jgt6"><rect x="374.67" y="338.13" width="38.45" height="8.1" style="isolation: isolate; opacity: 0.3; transform-origin: 393.895px 342.18px;" class="animable"></rect></g><g id="elzd1kdios8ur"><polygon points="315.61 314.66 327.17 314.71 324.94 335.55 336.3 335.72 336.3 338.18 305.69 338.25 305.69 335.83 313.07 335.69 315.61 314.66" style="fill: rgb(255, 255, 255); isolation: isolate; opacity: 0.6; transform-origin: 320.995px 326.455px;" class="animable"></polygon></g></g><defs>     <filter id="active" height="200%">         <feMorphology in="SourceAlpha" result="DILATED" operator="dilate" radius="2"></feMorphology>                <feFlood flood-color="#32DFEC" flood-opacity="1" result="PINK"></feFlood>        <feComposite in="PINK" in2="DILATED" operator="in" result="OUTLINE"></feComposite>        <feMerge>            <feMergeNode in="OUTLINE"></feMergeNode>            <feMergeNode in="SourceGraphic"></feMergeNode>        </feMerge>    </filter>    <filter id="hover" height="200%">        <feMorphology in="SourceAlpha" result="DILATED" operator="dilate" radius="2"></feMorphology>                <feFlood flood-color="#ff0000" flood-opacity="0.5" result="PINK"></feFlood>        <feComposite in="PINK" in2="DILATED" operator="in" result="OUTLINE"></feComposite>        <feMerge>            <feMergeNode in="OUTLINE"></feMergeNode>            <feMergeNode in="SourceGraphic"></feMergeNode>        </feMerge>            <feColorMatrix type="matrix" values="0   0   0   0   0                0   1   0   0   0                0   0   0   0   0                0   0   0   1   0 "></feColorMatrix>    </filter></defs></svg>